<svg width="21" height="22" viewBox="0 0 21 22" fill="none" xmlns="http://www.w3.org/2000/svg">
<path d="M4.65625 2.06055C5.51562 1.48242 6.44531 1.04102 7.44531 0.736328C8.44531 0.431641 9.46094 0.279297 10.4922 0.279297C11.1953 0.279297 11.8828 0.349609 12.5547 0.490234C13.2266 0.615234 13.8789 0.810547 14.5117 1.07617C15.1445 1.3418 15.75 1.66211 16.3281 2.03711C16.8906 2.42773 17.4219 2.86523 17.9219 3.34961C18.4062 3.84961 18.8438 4.38086 19.2344 4.94336C19.6094 5.52148 19.9297 6.12695 20.1953 6.75977C20.4609 7.39258 20.6562 8.04492 20.7812 8.7168C20.9219 9.38867 20.9922 10.0762 20.9922 10.7793C20.9922 11.8105 20.8398 12.8262 20.5352 13.8262C20.2305 14.8262 19.7891 15.7559 19.2109 16.6152C18.6484 17.4746 17.9648 18.2324 17.1602 18.8887C16.3555 19.5449 15.4688 20.0762 14.5 20.4824C13.5469 20.873 12.5547 21.1191 11.5234 21.2207C10.4922 21.3223 9.46875 21.2715 8.45312 21.0684C7.42188 20.8652 6.44922 20.5215 5.53516 20.0371C4.62109 19.5527 3.79688 18.9434 3.0625 18.209C2.32812 17.4746 1.71875 16.6504 1.23438 15.7363C0.75 14.8223 0.40625 13.8496 0.203125 12.8184C0 11.8027 -0.0507812 10.7793 0.0507812 9.74805C0.152344 8.7168 0.398438 7.72461 0.789062 6.77148C1.19531 5.80273 1.72656 4.91602 2.38281 4.11133C3.03906 3.30664 3.79688 2.62305 4.65625 2.06055ZM5.5 18.2559C6.23438 18.7559 7.02734 19.1348 7.87891 19.3926C8.73047 19.6504 9.60156 19.7793 10.4922 19.7793C11.6797 19.7793 12.8281 19.5527 13.9375 19.0996C15.0469 18.6465 16.0234 17.998 16.8672 17.1543C17.7109 16.3105 18.3594 15.334 18.8125 14.2246C19.2656 13.1152 19.4922 11.9668 19.4922 10.7793C19.4922 9.88867 19.3633 9.01758 19.1055 8.16602C18.8477 7.31445 18.4688 6.52148 17.9688 5.78711C17.4844 5.03711 16.8984 4.38086 16.2109 3.81836C15.5234 3.25586 14.7656 2.80273 13.9375 2.45898C13.1094 2.11523 12.2539 1.90039 11.3711 1.81445C10.4883 1.72852 9.60938 1.77148 8.73438 1.94336C7.85938 2.11523 7.03125 2.41211 6.25 2.83398C5.46875 3.25586 4.75781 3.7793 4.11719 4.4043C3.49219 5.04492 2.96875 5.75586 2.54688 6.53711C2.125 7.31836 1.82812 8.14648 1.65625 9.02148C1.48437 9.89648 1.44141 10.7754 1.52734 11.6582C1.61328 12.541 1.82812 13.3965 2.17188 14.2246C2.51562 15.0527 2.96875 15.8105 3.53125 16.498C4.09375 17.1855 4.75 17.7715 5.5 18.2559ZM5.24219 11.084L8.99219 14.834L15.7422 8.08398L14.6875 7.0293L8.99219 12.7246L6.29688 10.0293L5.24219 11.084Z" fill="url(#paint0_linear_1_1212)"/>
<defs>
<linearGradient id="paint0_linear_1_1212" x1="1.94455e-07" y1="0.279297" x2="24.5441" y2="15.5701" gradientUnits="userSpaceOnUse">
<stop stop-color="#2600FC"/>
<stop offset="1" stop-color="#FF00EA"/>
</linearGradient>
</defs>
</svg>
