<svg display="none" xmlns="http://www.w3.org/2000/svg">
  <!-- discord -->
  <symbol id="discord" viewBox="0 -28.5 256 256">
    <g>
      <path
        d="M216.856339,16.5966031 C200.285002,8.84328665 182.566144,3.2084988 164.041564,0 C161.766523,4.11318106 159.108624,9.64549908 157.276099,14.0464379 C137.583995,11.0849896 118.072967,11.0849896 98.7430163,14.0464379 C96.9108417,9.64549908 94.1925838,4.11318106 91.8971895,0 C73.3526068,3.2084988 55.6133949,8.86399117 39.0420583,16.6376612 C5.61752293,67.146514 -3.4433191,116.400813 1.08711069,164.955721 C23.2560196,181.510915 44.7403634,191.567697 65.8621325,198.148576 C71.0772151,190.971126 75.7283628,183.341335 79.7352139,175.300261 C72.104019,172.400575 64.7949724,168.822202 57.8887866,164.667963 C59.7209612,163.310589 61.5131304,161.891452 63.2445898,160.431257 C105.36741,180.133187 151.134928,180.133187 192.754523,160.431257 C194.506336,161.891452 196.298154,163.310589 198.110326,164.667963 C191.183787,168.842556 183.854737,172.420929 176.223542,175.320965 C180.230393,183.341335 184.861538,190.991831 190.096624,198.16893 C211.238746,191.588051 232.743023,181.531619 254.911949,164.955721 C260.227747,108.668201 245.831087,59.8662432 216.856339,16.5966031 Z M85.4738752,135.09489 C72.8290281,135.09489 62.4592217,123.290155 62.4592217,108.914901 C62.4592217,94.5396472 72.607595,82.7145587 85.4738752,82.7145587 C98.3405064,82.7145587 108.709962,94.5189427 108.488529,108.914901 C108.508531,123.290155 98.3405064,135.09489 85.4738752,135.09489 Z M170.525237,135.09489 C157.88039,135.09489 147.510584,123.290155 147.510584,108.914901 C147.510584,94.5396472 157.658606,82.7145587 170.525237,82.7145587 C183.391518,82.7145587 193.761324,94.5189427 193.539891,108.914901 C193.539891,123.290155 183.391518,135.09489 170.525237,135.09489 Z">
      </path>
    </g>
  </symbol>

  <!-- instagram -->
  <symbol id="instagram" viewBox="0 0 20 20">
    <g>
      <g transform="translate(-340.000000, -7439.000000)">
        <g transform="translate(56.000000, 160.000000)">
          <path
            d="M289.869652,7279.12273 C288.241769,7279.19618 286.830805,7279.5942 285.691486,7280.72871 C284.548187,7281.86918 284.155147,7283.28558 284.081514,7284.89653 C284.035742,7285.90201 283.768077,7293.49818 284.544207,7295.49028 C285.067597,7296.83422 286.098457,7297.86749 287.454694,7298.39256 C288.087538,7298.63872 288.809936,7298.80547 289.869652,7298.85411 C298.730467,7299.25511 302.015089,7299.03674 303.400182,7295.49028 C303.645956,7294.859 303.815113,7294.1374 303.86188,7293.08031 C304.26686,7284.19677 303.796207,7282.27117 302.251908,7280.72871 C301.027016,7279.50685 299.5862,7278.67508 289.869652,7279.12273 M289.951245,7297.06748 C288.981083,7297.0238 288.454707,7296.86201 288.103459,7296.72603 C287.219865,7296.3826 286.556174,7295.72155 286.214876,7294.84312 C285.623823,7293.32944 285.819846,7286.14023 285.872583,7284.97693 C285.924325,7283.83745 286.155174,7282.79624 286.959165,7281.99226 C287.954203,7280.99968 289.239792,7280.51332 297.993144,7280.90837 C299.135448,7280.95998 300.179243,7281.19026 300.985224,7281.99226 C301.980262,7282.98483 302.473801,7284.28014 302.071806,7292.99991 C302.028024,7293.96767 301.865833,7294.49274 301.729513,7294.84312 C300.829003,7297.15085 298.757333,7297.47145 289.951245,7297.06748 M298.089663,7283.68956 C298.089663,7284.34665 298.623998,7284.88065 299.283709,7284.88065 C299.943419,7284.88065 300.47875,7284.34665 300.47875,7283.68956 C300.47875,7283.03248 299.943419,7282.49847 299.283709,7282.49847 C298.623998,7282.49847 298.089663,7283.03248 298.089663,7283.68956 M288.862673,7288.98792 C288.862673,7291.80286 291.150266,7294.08479 293.972194,7294.08479 C296.794123,7294.08479 299.081716,7291.80286 299.081716,7288.98792 C299.081716,7286.17298 296.794123,7283.89205 293.972194,7283.89205 C291.150266,7283.89205 288.862673,7286.17298 288.862673,7288.98792 M290.655732,7288.98792 C290.655732,7287.16159 292.140329,7285.67967 293.972194,7285.67967 C295.80406,7285.67967 297.288657,7287.16159 297.288657,7288.98792 C297.288657,7290.81525 295.80406,7292.29716 293.972194,7292.29716 C292.140329,7292.29716 290.655732,7290.81525 290.655732,7288.98792">
          </path>
        </g>
      </g>
    </g>
  </symbol>

  <!-- twitter -->
  <symbol id="twitter" viewBox="0 -2 20 20">
    <g>
      <g transform="translate(-60.000000, -7521.000000)">
        <g transform="translate(56.000000, 160.000000)">
          <path
            d="M10.29,7377 C17.837,7377 21.965,7370.84365 21.965,7365.50546 C21.965,7365.33021 21.965,7365.15595 21.953,7364.98267 C22.756,7364.41163 23.449,7363.70276 24,7362.8915 C23.252,7363.21837 22.457,7363.433 21.644,7363.52751 C22.5,7363.02244 23.141,7362.2289 23.448,7361.2926 C22.642,7361.76321 21.761,7362.095 20.842,7362.27321 C19.288,7360.64674 16.689,7360.56798 15.036,7362.09796 C13.971,7363.08447 13.518,7364.55538 13.849,7365.95835 C10.55,7365.79492 7.476,7364.261 5.392,7361.73762 C4.303,7363.58363 4.86,7365.94457 6.663,7367.12996 C6.01,7367.11125 5.371,7366.93797 4.8,7366.62489 L4.8,7366.67608 C4.801,7368.5989 6.178,7370.2549 8.092,7370.63591 C7.488,7370.79836 6.854,7370.82199 6.24,7370.70483 C6.777,7372.35099 8.318,7373.47829 10.073,7373.51078 C8.62,7374.63513 6.825,7375.24554 4.977,7375.24358 C4.651,7375.24259 4.325,7375.22388 4,7375.18549 C5.877,7376.37088 8.06,7377 10.29,7376.99705">
          </path>
        </g>
      </g>
    </g>
  </symbol>

  <!-- telegram -->
  <symbol id="telegram" viewBox="0 0 16 13">
    <path
      d="M14.9375 1.72375L12.8438 11.6925C12.6875 12.38 12.25 12.5675 11.6562 12.2238L8.4375 9.84875L6.90625 11.3488C6.71875 11.5363 6.59375 11.6613 6.25 11.6613L6.46875 8.38L12.4375 3.005C12.7188 2.78625 12.375 2.63 12.0312 2.88L4.65625 7.505L1.5 6.53625C0.8125 6.3175 0.78125 5.84875 1.625 5.505L14.0625 0.723755C14.625 0.505005 15.125 0.848755 14.9375 1.72375Z" />
  </symbol>

  <!-- facebook -->
  <symbol id="facebook" viewBox="0 0 10 17">
    <path
      d="M8.71875 9.63H6.375V16.63H3.25V9.63H0.6875V6.755H3.25V4.53625C3.25 2.03625 4.75 0.630005 7.03125 0.630005C8.125 0.630005 9.28125 0.848755 9.28125 0.848755V3.3175H8C6.75 3.3175 6.375 4.0675 6.375 4.88V6.755H9.15625L8.71875 9.63Z" />
  </symbol>

  <!-- wallet -->
  <symbol id="wallet" viewBox="0 0 512 512">
    <path
      d="M461.2 128H80c-8.84 0-16-7.16-16-16s7.16-16 16-16h384c8.84 0 16-7.16 16-16 0-26.51-21.49-48-48-48H64C28.65 32 0 60.65 0 96v320c0 35.35 28.65 64 64 64h397.2c28.02 0 50.8-21.53 50.8-48V176c0-26.47-22.78-48-50.8-48zM416 336c-17.67 0-32-14.33-32-32s14.33-32 32-32 32 14.33 32 32-14.33 32-32 32z" />
  </symbol>

  <!-- tickDown -->
  <symbol id="tickDown" viewBox="0 0 18 15">
    <path
      d="M8.91117 14.3604L0.0723305 1.86035L1.31529 0.102539L8.91117 10.8447L16.507 0.102539L17.75 1.86035L8.91117 14.3604Z" />
  </symbol>

  <!-- tickUp -->
  <symbol id="tickUp" viewBox="0 0 14 8">
    <path
      d="M7 0.720703L13.25 6.9707L12.3711 7.84961L7 2.47852L1.62891 7.84961L0.75 6.9707L7 0.720703Z" />
  </symbol>

  <!-- tickSlider  -->
  <symbol id="tickSlider" viewBox="0 0 8 14">
    <path
      d="M7.65967 7.21313L1.97607 12.926C1.68311 13.1897 1.24365 13.1897 0.97998 12.926L0.306152 12.2522C0.0424805 11.9885 0.0424805 11.5491 0.306152 11.2561L4.81787 6.71509L0.306152 2.20337C0.0424805 1.9104 0.0424805 1.47095 0.306152 1.20728L0.97998 0.533447C1.24365 0.269775 1.68311 0.269775 1.97607 0.533447L7.65967 6.24634C7.92334 6.51001 7.92334 6.94946 7.65967 7.21313Z" />
  </symbol>

  <!-- nfthub -->
  <symbol id="nfthub" viewBox="0 0 143 26">
    <path
      d="M0.905281 25.1433V2.10331H5.80128L19.2733 18.1673V2.10331H23.9453V25.1433H19.0493L5.51328 9.01531V25.1433H0.905281ZM27.5943 25.1433V2.10331H48.8423V6.74331H32.2663V11.2873H45.6103V15.9593H32.2663V25.1433H27.5943ZM59.0318 25.1433V6.74331H49.8158V2.10331H72.8558V6.74331H63.6718V25.1433H59.0318ZM75.281 25.1433V2.10331H79.889V11.2873H94.193V2.10331H98.801V25.1433H94.193V15.9593H79.889V25.1433H75.281ZM106.884 25.1433C106.073 25.1433 105.316 24.9406 104.612 24.5353C103.929 24.1086 103.385 23.554 102.98 22.8713C102.574 22.1886 102.372 21.442 102.372 20.6313V6.58331H106.916V20.4073C106.916 20.45 106.937 20.4926 106.98 20.5353C107.022 20.578 107.065 20.5993 107.108 20.5993H116.452C116.494 20.5993 116.537 20.578 116.58 20.5353C116.622 20.4926 116.644 20.45 116.644 20.4073V6.58331H121.188V20.6313C121.188 21.442 120.985 22.1886 120.58 22.8713C120.174 23.554 119.63 24.1086 118.948 24.5353C118.265 24.9406 117.508 25.1433 116.676 25.1433H106.884ZM123.873 25.1433V0.503309H128.417V6.58331H138.177C139.009 6.58331 139.766 6.79664 140.449 7.22331C141.131 7.62864 141.675 8.17264 142.081 8.85531C142.486 9.53798 142.689 10.2846 142.689 11.0953V20.6313C142.689 21.442 142.486 22.1886 142.081 22.8713C141.675 23.554 141.131 24.1086 140.449 24.5353C139.766 24.9406 139.009 25.1433 138.177 25.1433H123.873ZM128.609 20.5993H137.953C138.017 20.5993 138.059 20.578 138.081 20.5353C138.123 20.4926 138.145 20.45 138.145 20.4073V11.3193C138.145 11.2766 138.123 11.234 138.081 11.1913C138.059 11.1486 138.017 11.1273 137.953 11.1273H128.609C128.566 11.1273 128.523 11.1486 128.481 11.1913C128.438 11.234 128.417 11.2766 128.417 11.3193V20.4073C128.417 20.45 128.438 20.4926 128.481 20.5353C128.523 20.578 128.566 20.5993 128.609 20.5993Z" />
  </symbol>

  <!-- arrowDiagonal -->
  <symbol id="arrowDiagonal" viewBox="0 0 16 16">
    <path d="M3.75 0.5V2H13.1953L0.75 14.4453L1.80469 15.5L14.25 3.05469V12.5H15.75V0.5H3.75Z" />
  </symbol>

  <!-- sun -->
  <symbol id="sun" viewBox="0 0 17 16">
    <path
      d="M8.4999 5.35002C10.0437 5.35002 11.3499 6.65627 11.3499 8.20002C11.3499 9.77346 10.0437 11.05 8.4999 11.05C6.92646 11.05 5.6499 9.77346 5.6499 8.20002C5.6499 6.65627 6.92646 5.35002 8.4999 5.35002ZM15.803 7.75471C16.189 7.93284 16.189 8.4969 15.803 8.67502L12.9827 10.0703L13.9921 13.0688C14.1108 13.4547 13.7249 13.8406 13.339 13.7219L10.3405 12.7125L8.94521 15.5328C8.76709 15.9188 8.20303 15.9188 8.0249 15.5328L6.62959 12.7125L3.63115 13.7219C3.24521 13.8406 2.85928 13.4547 2.97803 13.0688L3.9874 10.0703L1.16709 8.67502C0.781152 8.4969 0.781152 7.93284 1.16709 7.75471L3.9874 6.3594L2.97803 3.36096C2.85928 2.97502 3.24521 2.58909 3.63115 2.70784L6.62959 3.71721L8.0249 0.8969C8.20303 0.510962 8.76709 0.510962 8.94521 0.8969L10.3405 3.71721L13.339 2.70784C13.7249 2.58909 14.1108 2.97502 13.9921 3.36096L12.9827 6.3594L15.803 7.75471ZM11.1718 10.9016C12.6562 9.41721 12.6562 7.01252 11.1718 5.52815C9.6874 4.04377 7.28271 4.04377 5.79834 5.52815C4.31396 7.01252 4.31396 9.41721 5.79834 10.9016C7.28271 12.386 9.6874 12.386 11.1718 10.9016Z" />
  </symbol>

  <!-- moon -->
  <symbol id="moon" viewBox="0 0 24 24">
    <path
      d="M12 22C17.5228 22 22 17.5228 22 12C22 11.5373 21.3065 11.4608 21.0672 11.8568C19.9289 13.7406 17.8615 15 15.5 15C11.9101 15 9 12.0899 9 8.5C9 6.13845 10.2594 4.07105 12.1432 2.93276C12.5392 2.69347 12.4627 2 12 2C6.47715 2 2 6.47715 2 12C2 17.5228 6.47715 22 12 22Z" />
  </symbol>

  <!-- openMobileMenu -->
  <symbol id="openMobileMenu" viewBox="0 0 30 30">
    <g>
      <path
        d="M10.2 14.1H3.9C2.83333 14.1 1.91667 13.7167 1.15 12.95C0.383333 12.1833 0 11.2667 0 10.2V3.9C0 2.83333 0.383333 1.91667 1.15 1.15C1.91667 0.383333 2.83333 0 3.9 0H10.2C11.2667 0 12.1833 0.383333 12.95 1.15C13.7167 1.91667 14.1 2.83333 14.1 3.9V10.2C14.1 11.2667 13.7167 12.1833 12.95 12.95C12.1833 13.7167 11.2667 14.1 10.2 14.1ZM3.9 1.9C3.3 1.9 2.81667 2.08333 2.45 2.45C2.08333 2.81667 1.9 3.3 1.9 3.9V10.2C1.9 10.7333 2.08333 11.2 2.45 11.6C2.81667 12 3.3 12.2 3.9 12.2H10.2C10.7333 12.2 11.2 12 11.6 11.6C12 11.2 12.2 10.7333 12.2 10.2V3.9C12.2 3.3 12 2.81667 11.6 2.45C11.2 2.08333 10.7333 1.9 10.2 1.9H3.9ZM26.1 14.1H19.8C18.7333 14.1 17.8167 13.7167 17.05 12.95C16.2833 12.1833 15.9 11.2667 15.9 10.2V3.9C15.9 2.83333 16.2833 1.91667 17.05 1.15C17.8167 0.383333 18.7333 0 19.8 0H26.1C27.1667 0 28.0833 0.383333 28.85 1.15C29.6167 1.91667 30 2.83333 30 3.9V10.2C30 11.2667 29.6167 12.1833 28.85 12.95C28.0833 13.7167 27.1667 14.1 26.1 14.1ZM19.8 1.9C19.2667 1.9 18.8 2.08333 18.4 2.45C18 2.81667 17.8 3.3 17.8 3.9V10.2C17.8 10.7333 18 11.2 18.4 11.6C18.8 12 19.2667 12.2 19.8 12.2H26.1C26.7 12.2 27.1833 12 27.55 11.6C27.9167 11.2 28.1 10.7333 28.1 10.2V3.9C28.1 3.3 27.9167 2.81667 27.55 2.45C27.1833 2.08333 26.7 1.9 26.1 1.9H19.8ZM23 30C21.7333 30 20.55 29.6833 19.45 29.05C18.35 28.4167 17.4833 27.5667 16.85 26.5C16.2167 25.4333 15.9 24.2667 15.9 23C15.9 21.7333 16.2167 20.55 16.85 19.45C17.4833 18.35 18.35 17.4833 19.45 16.85C20.55 16.2167 21.7333 15.9 23 15.9C24.2667 15.9 25.4333 16.2167 26.5 16.85C27.5667 17.4833 28.4167 18.35 29.05 19.45C29.6833 20.55 30 21.7333 30 23C30 24.2667 29.6833 25.4333 29.05 26.5C28.4167 27.5667 27.5667 28.4167 26.5 29.05C25.4333 29.6833 24.2667 30 23 30ZM23 17.8C21.5333 17.8 20.3 18.3 19.3 19.3C18.3 20.3 17.8 21.5167 17.8 22.95C17.8 24.3833 18.3 25.6 19.3 26.6C20.3 27.6 21.5167 28.1 22.95 28.1C24.3833 28.1 25.6 27.6 26.6 26.6C27.6 25.6 28.1 24.3833 28.1 22.95C28.1 21.5167 27.6 20.3 26.6 19.3C25.6 18.3 24.4 17.8 23 17.8ZM10.2 30H3.9C2.83333 30 1.91667 29.6167 1.15 28.85C0.383333 28.0833 0 27.1667 0 26.1V19.8C0 18.7333 0.383333 17.8167 1.15 17.05C1.91667 16.2833 2.83333 15.9 3.9 15.9H10.2C11.2667 15.9 12.1833 16.2833 12.95 17.05C13.7167 17.8167 14.1 18.7333 14.1 19.8V26.1C14.1 27.1667 13.7167 28.0833 12.95 28.85C12.1833 29.6167 11.2667 30 10.2 30ZM3.9 17.8C3.3 17.8 2.81667 18 2.45 18.4C2.08333 18.8 1.9 19.2667 1.9 19.8V26.1C1.9 26.7 2.08333 27.1833 2.45 27.55C2.81667 27.9167 3.3 28.1 3.9 28.1H10.2C10.7333 28.1 11.2 27.9167 11.6 27.55C12 27.1833 12.2 26.7 12.2 26.1V19.8C12.2 19.2667 12 18.8 11.6 18.4C11.2 18 10.7333 17.8 10.2 17.8H3.9Z" />
    </g>
    <defs>
      <clipPath>
        <rect transform="matrix(1 0 0 -1 0 30)" />
      </clipPath>
    </defs>
  </symbol>
</svg>