<svg display="none" xmlns="http://www.w3.org/2000/svg">
  <!-- discord -->
  <symbol id="discord" viewBox="0 -28.5 256 256">
    <g>
      <path
        d="M216.856339,16.5966031 C200.285002,8.84328665 182.566144,3.2084988 164.041564,0 C161.766523,4.11318106 159.108624,9.64549908 157.276099,14.0464379 C137.583995,11.0849896 118.072967,11.0849896 98.7430163,14.0464379 C96.9108417,9.64549908 94.1925838,4.11318106 91.8971895,0 C73.3526068,3.2084988 55.6133949,8.86399117 39.0420583,16.6376612 C5.61752293,67.146514 -3.4433191,116.400813 1.08711069,164.955721 C23.2560196,181.510915 44.7403634,191.567697 65.8621325,198.148576 C71.0772151,190.971126 75.7283628,183.341335 79.7352139,175.300261 C72.104019,172.400575 64.7949724,168.822202 57.8887866,164.667963 C59.7209612,163.310589 61.5131304,161.891452 63.2445898,160.431257 C105.36741,180.133187 151.134928,180.133187 192.754523,160.431257 C194.506336,161.891452 196.298154,163.310589 198.110326,164.667963 C191.183787,168.842556 183.854737,172.420929 176.223542,175.320965 C180.230393,183.341335 184.861538,190.991831 190.096624,198.16893 C211.238746,191.588051 232.743023,181.531619 254.911949,164.955721 C260.227747,108.668201 245.831087,59.8662432 216.856339,16.5966031 Z M85.4738752,135.09489 C72.8290281,135.09489 62.4592217,123.290155 62.4592217,108.914901 C62.4592217,94.5396472 72.607595,82.7145587 85.4738752,82.7145587 C98.3405064,82.7145587 108.709962,94.5189427 108.488529,108.914901 C108.508531,123.290155 98.3405064,135.09489 85.4738752,135.09489 Z M170.525237,135.09489 C157.88039,135.09489 147.510584,123.290155 147.510584,108.914901 C147.510584,94.5396472 157.658606,82.7145587 170.525237,82.7145587 C183.391518,82.7145587 193.761324,94.5189427 193.539891,108.914901 C193.539891,123.290155 183.391518,135.09489 170.525237,135.09489 Z">
      </path>
    </g>
  </symbol>

  <!-- instagram -->
  <symbol id="instagram" viewBox="0 0 20 20">
    <g>
      <g transform="translate(-340.000000, -7439.000000)">
        <g transform="translate(56.000000, 160.000000)">
          <path
            d="M289.869652,7279.12273 C288.241769,7279.19618 286.830805,7279.5942 285.691486,7280.72871 C284.548187,7281.86918 284.155147,7283.28558 284.081514,7284.89653 C284.035742,7285.90201 283.768077,7293.49818 284.544207,7295.49028 C285.067597,7296.83422 286.098457,7297.86749 287.454694,7298.39256 C288.087538,7298.63872 288.809936,7298.80547 289.869652,7298.85411 C298.730467,7299.25511 302.015089,7299.03674 303.400182,7295.49028 C303.645956,7294.859 303.815113,7294.1374 303.86188,7293.08031 C304.26686,7284.19677 303.796207,7282.27117 302.251908,7280.72871 C301.027016,7279.50685 299.5862,7278.67508 289.869652,7279.12273 M289.951245,7297.06748 C288.981083,7297.0238 288.454707,7296.86201 288.103459,7296.72603 C287.219865,7296.3826 286.556174,7295.72155 286.214876,7294.84312 C285.623823,7293.32944 285.819846,7286.14023 285.872583,7284.97693 C285.924325,7283.83745 286.155174,7282.79624 286.959165,7281.99226 C287.954203,7280.99968 289.239792,7280.51332 297.993144,7280.90837 C299.135448,7280.95998 300.179243,7281.19026 300.985224,7281.99226 C301.980262,7282.98483 302.473801,7284.28014 302.071806,7292.99991 C302.028024,7293.96767 301.865833,7294.49274 301.729513,7294.84312 C300.829003,7297.15085 298.757333,7297.47145 289.951245,7297.06748 M298.089663,7283.68956 C298.089663,7284.34665 298.623998,7284.88065 299.283709,7284.88065 C299.943419,7284.88065 300.47875,7284.34665 300.47875,7283.68956 C300.47875,7283.03248 299.943419,7282.49847 299.283709,7282.49847 C298.623998,7282.49847 298.089663,7283.03248 298.089663,7283.68956 M288.862673,7288.98792 C288.862673,7291.80286 291.150266,7294.08479 293.972194,7294.08479 C296.794123,7294.08479 299.081716,7291.80286 299.081716,7288.98792 C299.081716,7286.17298 296.794123,7283.89205 293.972194,7283.89205 C291.150266,7283.89205 288.862673,7286.17298 288.862673,7288.98792 M290.655732,7288.98792 C290.655732,7287.16159 292.140329,7285.67967 293.972194,7285.67967 C295.80406,7285.67967 297.288657,7287.16159 297.288657,7288.98792 C297.288657,7290.81525 295.80406,7292.29716 293.972194,7292.29716 C292.140329,7292.29716 290.655732,7290.81525 290.655732,7288.98792">
          </path>
        </g>
      </g>
    </g>
  </symbol>

  <!-- twitter -->
  <symbol id="twitter" viewBox="0 -2 20 20">
    <g>
      <g transform="translate(-60.000000, -7521.000000)">
        <g transform="translate(56.000000, 160.000000)">
          <path
            d="M10.29,7377 C17.837,7377 21.965,7370.84365 21.965,7365.50546 C21.965,7365.33021 21.965,7365.15595 21.953,7364.98267 C22.756,7364.41163 23.449,7363.70276 24,7362.8915 C23.252,7363.21837 22.457,7363.433 21.644,7363.52751 C22.5,7363.02244 23.141,7362.2289 23.448,7361.2926 C22.642,7361.76321 21.761,7362.095 20.842,7362.27321 C19.288,7360.64674 16.689,7360.56798 15.036,7362.09796 C13.971,7363.08447 13.518,7364.55538 13.849,7365.95835 C10.55,7365.79492 7.476,7364.261 5.392,7361.73762 C4.303,7363.58363 4.86,7365.94457 6.663,7367.12996 C6.01,7367.11125 5.371,7366.93797 4.8,7366.62489 L4.8,7366.67608 C4.801,7368.5989 6.178,7370.2549 8.092,7370.63591 C7.488,7370.79836 6.854,7370.82199 6.24,7370.70483 C6.777,7372.35099 8.318,7373.47829 10.073,7373.51078 C8.62,7374.63513 6.825,7375.24554 4.977,7375.24358 C4.651,7375.24259 4.325,7375.22388 4,7375.18549 C5.877,7376.37088 8.06,7377 10.29,7376.99705">
          </path>
        </g>
      </g>
    </g>
  </symbol>

  <!-- telegram -->
  <symbol id="telegram" viewBox="0 0 16 13">
    <path
      d="M14.9375 1.72375L12.8438 11.6925C12.6875 12.38 12.25 12.5675 11.6562 12.2238L8.4375 9.84875L6.90625 11.3488C6.71875 11.5363 6.59375 11.6613 6.25 11.6613L6.46875 8.38L12.4375 3.005C12.7188 2.78625 12.375 2.63 12.0312 2.88L4.65625 7.505L1.5 6.53625C0.8125 6.3175 0.78125 5.84875 1.625 5.505L14.0625 0.723755C14.625 0.505005 15.125 0.848755 14.9375 1.72375Z" />
  </symbol>

  <!-- facebook -->
  <symbol id="facebook" viewBox="0 0 10 17">
    <path
      d="M8.71875 9.63H6.375V16.63H3.25V9.63H0.6875V6.755H3.25V4.53625C3.25 2.03625 4.75 0.630005 7.03125 0.630005C8.125 0.630005 9.28125 0.848755 9.28125 0.848755V3.3175H8C6.75 3.3175 6.375 4.0675 6.375 4.88V6.755H9.15625L8.71875 9.63Z" />
  </symbol>

  <!-- youtube -->
  <symbol id="youtube" viewBox="0 0 22 16">
    <path
      d="M20.9453 2.44336C21.4141 4.08398 21.4141 7.59961 21.4141 7.59961C21.4141 7.59961 21.4141 11.0762 20.9453 12.7559C20.7109 13.6934 19.9688 14.3965 19.0703 14.6309C17.3906 15.0605 10.75 15.0605 10.75 15.0605C10.75 15.0605 4.07031 15.0605 2.39062 14.6309C1.49219 14.3965 0.75 13.6934 0.515625 12.7559C0.046875 11.0762 0.046875 7.59961 0.046875 7.59961C0.046875 7.59961 0.046875 4.08398 0.515625 2.44336C0.75 1.50586 1.49219 0.763672 2.39062 0.529297C4.07031 0.0605469 10.75 0.0605469 10.75 0.0605469C10.75 0.0605469 17.3906 0.0605469 19.0703 0.529297C19.9688 0.763672 20.7109 1.50586 20.9453 2.44336ZM8.5625 10.7637L14.1094 7.59961L8.5625 4.43555V10.7637Z"
    />
  </symbol>

  <!-- wallet -->
  <symbol id="wallet" viewBox="0 0 512 512">
    <path
      d="M461.2 128H80c-8.84 0-16-7.16-16-16s7.16-16 16-16h384c8.84 0 16-7.16 16-16 0-26.51-21.49-48-48-48H64C28.65 32 0 60.65 0 96v320c0 35.35 28.65 64 64 64h397.2c28.02 0 50.8-21.53 50.8-48V176c0-26.47-22.78-48-50.8-48zM416 336c-17.67 0-32-14.33-32-32s14.33-32 32-32 32 14.33 32 32-14.33 32-32 32z" />
  </symbol>

  <!-- nfthub -->
  <symbol id="nfthub" viewBox="0 0 143 26">
    <path
      d="M0.905281 25.1433V2.10331H5.80128L19.2733 18.1673V2.10331H23.9453V25.1433H19.0493L5.51328 9.01531V25.1433H0.905281ZM27.5943 25.1433V2.10331H48.8423V6.74331H32.2663V11.2873H45.6103V15.9593H32.2663V25.1433H27.5943ZM59.0318 25.1433V6.74331H49.8158V2.10331H72.8558V6.74331H63.6718V25.1433H59.0318ZM75.281 25.1433V2.10331H79.889V11.2873H94.193V2.10331H98.801V25.1433H94.193V15.9593H79.889V25.1433H75.281ZM106.884 25.1433C106.073 25.1433 105.316 24.9406 104.612 24.5353C103.929 24.1086 103.385 23.554 102.98 22.8713C102.574 22.1886 102.372 21.442 102.372 20.6313V6.58331H106.916V20.4073C106.916 20.45 106.937 20.4926 106.98 20.5353C107.022 20.578 107.065 20.5993 107.108 20.5993H116.452C116.494 20.5993 116.537 20.578 116.58 20.5353C116.622 20.4926 116.644 20.45 116.644 20.4073V6.58331H121.188V20.6313C121.188 21.442 120.985 22.1886 120.58 22.8713C120.174 23.554 119.63 24.1086 118.948 24.5353C118.265 24.9406 117.508 25.1433 116.676 25.1433H106.884ZM123.873 25.1433V0.503309H128.417V6.58331H138.177C139.009 6.58331 139.766 6.79664 140.449 7.22331C141.131 7.62864 141.675 8.17264 142.081 8.85531C142.486 9.53798 142.689 10.2846 142.689 11.0953V20.6313C142.689 21.442 142.486 22.1886 142.081 22.8713C141.675 23.554 141.131 24.1086 140.449 24.5353C139.766 24.9406 139.009 25.1433 138.177 25.1433H123.873ZM128.609 20.5993H137.953C138.017 20.5993 138.059 20.578 138.081 20.5353C138.123 20.4926 138.145 20.45 138.145 20.4073V11.3193C138.145 11.2766 138.123 11.234 138.081 11.1913C138.059 11.1486 138.017 11.1273 137.953 11.1273H128.609C128.566 11.1273 128.523 11.1486 128.481 11.1913C128.438 11.234 128.417 11.2766 128.417 11.3193V20.4073C128.417 20.45 128.438 20.4926 128.481 20.5353C128.523 20.578 128.566 20.5993 128.609 20.5993Z" />
  </symbol>

  <!-- sun -->
  <symbol id="sun" viewBox="0 0 17 16">
    <path
      d="M8.4999 5.35002C10.0437 5.35002 11.3499 6.65627 11.3499 8.20002C11.3499 9.77346 10.0437 11.05 8.4999 11.05C6.92646 11.05 5.6499 9.77346 5.6499 8.20002C5.6499 6.65627 6.92646 5.35002 8.4999 5.35002ZM15.803 7.75471C16.189 7.93284 16.189 8.4969 15.803 8.67502L12.9827 10.0703L13.9921 13.0688C14.1108 13.4547 13.7249 13.8406 13.339 13.7219L10.3405 12.7125L8.94521 15.5328C8.76709 15.9188 8.20303 15.9188 8.0249 15.5328L6.62959 12.7125L3.63115 13.7219C3.24521 13.8406 2.85928 13.4547 2.97803 13.0688L3.9874 10.0703L1.16709 8.67502C0.781152 8.4969 0.781152 7.93284 1.16709 7.75471L3.9874 6.3594L2.97803 3.36096C2.85928 2.97502 3.24521 2.58909 3.63115 2.70784L6.62959 3.71721L8.0249 0.8969C8.20303 0.510962 8.76709 0.510962 8.94521 0.8969L10.3405 3.71721L13.339 2.70784C13.7249 2.58909 14.1108 2.97502 13.9921 3.36096L12.9827 6.3594L15.803 7.75471ZM11.1718 10.9016C12.6562 9.41721 12.6562 7.01252 11.1718 5.52815C9.6874 4.04377 7.28271 4.04377 5.79834 5.52815C4.31396 7.01252 4.31396 9.41721 5.79834 10.9016C7.28271 12.386 9.6874 12.386 11.1718 10.9016Z" />
  </symbol>

  <!-- moon -->
  <symbol id="moon" viewBox="0 0 24 24">
    <path
      d="M12 22C17.5228 22 22 17.5228 22 12C22 11.5373 21.3065 11.4608 21.0672 11.8568C19.9289 13.7406 17.8615 15 15.5 15C11.9101 15 9 12.0899 9 8.5C9 6.13845 10.2594 4.07105 12.1432 2.93276C12.5392 2.69347 12.4627 2 12 2C6.47715 2 2 6.47715 2 12C2 17.5228 6.47715 22 12 22Z" />
  </symbol>

  <!-- btnOpenMobileMenu -->
  <symbol id="btnOpenMobileMenu" viewBox="0 0 30 30">
    <g>
      <path
        d="M10.2 14.1H3.9C2.83333 14.1 1.91667 13.7167 1.15 12.95C0.383333 12.1833 0 11.2667 0 10.2V3.9C0 2.83333 0.383333 1.91667 1.15 1.15C1.91667 0.383333 2.83333 0 3.9 0H10.2C11.2667 0 12.1833 0.383333 12.95 1.15C13.7167 1.91667 14.1 2.83333 14.1 3.9V10.2C14.1 11.2667 13.7167 12.1833 12.95 12.95C12.1833 13.7167 11.2667 14.1 10.2 14.1ZM3.9 1.9C3.3 1.9 2.81667 2.08333 2.45 2.45C2.08333 2.81667 1.9 3.3 1.9 3.9V10.2C1.9 10.7333 2.08333 11.2 2.45 11.6C2.81667 12 3.3 12.2 3.9 12.2H10.2C10.7333 12.2 11.2 12 11.6 11.6C12 11.2 12.2 10.7333 12.2 10.2V3.9C12.2 3.3 12 2.81667 11.6 2.45C11.2 2.08333 10.7333 1.9 10.2 1.9H3.9ZM26.1 14.1H19.8C18.7333 14.1 17.8167 13.7167 17.05 12.95C16.2833 12.1833 15.9 11.2667 15.9 10.2V3.9C15.9 2.83333 16.2833 1.91667 17.05 1.15C17.8167 0.383333 18.7333 0 19.8 0H26.1C27.1667 0 28.0833 0.383333 28.85 1.15C29.6167 1.91667 30 2.83333 30 3.9V10.2C30 11.2667 29.6167 12.1833 28.85 12.95C28.0833 13.7167 27.1667 14.1 26.1 14.1ZM19.8 1.9C19.2667 1.9 18.8 2.08333 18.4 2.45C18 2.81667 17.8 3.3 17.8 3.9V10.2C17.8 10.7333 18 11.2 18.4 11.6C18.8 12 19.2667 12.2 19.8 12.2H26.1C26.7 12.2 27.1833 12 27.55 11.6C27.9167 11.2 28.1 10.7333 28.1 10.2V3.9C28.1 3.3 27.9167 2.81667 27.55 2.45C27.1833 2.08333 26.7 1.9 26.1 1.9H19.8ZM23 30C21.7333 30 20.55 29.6833 19.45 29.05C18.35 28.4167 17.4833 27.5667 16.85 26.5C16.2167 25.4333 15.9 24.2667 15.9 23C15.9 21.7333 16.2167 20.55 16.85 19.45C17.4833 18.35 18.35 17.4833 19.45 16.85C20.55 16.2167 21.7333 15.9 23 15.9C24.2667 15.9 25.4333 16.2167 26.5 16.85C27.5667 17.4833 28.4167 18.35 29.05 19.45C29.6833 20.55 30 21.7333 30 23C30 24.2667 29.6833 25.4333 29.05 26.5C28.4167 27.5667 27.5667 28.4167 26.5 29.05C25.4333 29.6833 24.2667 30 23 30ZM23 17.8C21.5333 17.8 20.3 18.3 19.3 19.3C18.3 20.3 17.8 21.5167 17.8 22.95C17.8 24.3833 18.3 25.6 19.3 26.6C20.3 27.6 21.5167 28.1 22.95 28.1C24.3833 28.1 25.6 27.6 26.6 26.6C27.6 25.6 28.1 24.3833 28.1 22.95C28.1 21.5167 27.6 20.3 26.6 19.3C25.6 18.3 24.4 17.8 23 17.8ZM10.2 30H3.9C2.83333 30 1.91667 29.6167 1.15 28.85C0.383333 28.0833 0 27.1667 0 26.1V19.8C0 18.7333 0.383333 17.8167 1.15 17.05C1.91667 16.2833 2.83333 15.9 3.9 15.9H10.2C11.2667 15.9 12.1833 16.2833 12.95 17.05C13.7167 17.8167 14.1 18.7333 14.1 19.8V26.1C14.1 27.1667 13.7167 28.0833 12.95 28.85C12.1833 29.6167 11.2667 30 10.2 30ZM3.9 17.8C3.3 17.8 2.81667 18 2.45 18.4C2.08333 18.8 1.9 19.2667 1.9 19.8V26.1C1.9 26.7 2.08333 27.1833 2.45 27.55C2.81667 27.9167 3.3 28.1 3.9 28.1H10.2C10.7333 28.1 11.2 27.9167 11.6 27.55C12 27.1833 12.2 26.7 12.2 26.1V19.8C12.2 19.2667 12 18.8 11.6 18.4C11.2 18 10.7333 17.8 10.2 17.8H3.9Z" />
    </g>
    <defs>
      <clipPath>
        <rect transform="matrix(1 0 0 -1 0 30)" />
      </clipPath>
    </defs>
  </symbol>

  <!-- btnCloseMobileMenu -->
  <symbol id="btnCloseMobileMenu" viewBox="0 0 24 24">
    <path
      d="M20.7457 3.32851C20.3552 2.93798 19.722 2.93798 19.3315 3.32851L12.0371 10.6229L4.74275 3.32851C4.35223 2.93798 3.71906 2.93798 3.32854 3.32851C2.93801 3.71903 2.93801 4.3522 3.32854 4.74272L10.6229 12.0371L3.32856 19.3314C2.93803 19.722 2.93803 20.3551 3.32856 20.7457C3.71908 21.1362 4.35225 21.1362 4.74277 20.7457L12.0371 13.4513L19.3315 20.7457C19.722 21.1362 20.3552 21.1362 20.7457 20.7457C21.1362 20.3551 21.1362 19.722 20.7457 19.3315L13.4513 12.0371L20.7457 4.74272C21.1362 4.3522 21.1362 3.71903 20.7457 3.32851Z" />
  </symbol>

  <!-- plus -->
  <symbol id="plus" viewBox="0 0 24 24">
    <path d="M4 12H20M12 4V20" stroke="inherit" stroke-width="3" stroke-linecap="round"
      stroke-linejoin="round" />
  </symbol>

  <!-- minus -->
  <symbol id="minus" viewBox="0 0 24 24">
    <path d="M5 12H19" stroke="inherit" stroke-width="3" stroke-linecap="round"
      stroke-linejoin="round" />
  </symbol>

  <!-- metamask -->
  <symbol id="metamask" viewBox="0 0 784.1 259.2">
    <style type="text/css">
    </style>
    <g id="bg_x28_do_not_export_x29_" class="st0">
    </g>
    <g>
      <g id="MM_Head_background__x28_Do_not_edit_x29_">
        <path class="st1" fill="#F5841F"
          d="M192.6,69.7l-40.6,15l0,0l0,0h-33.8l0,0l-40.6-15l0.3,0.2l-0.3-0.2l-6.3,18.7l4.2,20.1l-2.7,2l4,3l-3.1,2.3
            l4,3.6l-2.5,1.8L81,128l-8.7,26.8l0,0l0,0l8.1,27.4l28.4-7.7l0,0l0,0l0,0l0,0l0,0l0,0l0,0l0,0l0,0l0,0l5.5,4.5l11.2,7.6h19.2
            L156,179l5.5-4.5l0,0l0,0l0,0l0,0l0,0l0,0l0,0l0,0l0,0l0,0l28.4,7.7l8.1-27.4l0,0l0,0l-8.8-26.8 M189.1,128l5.8-6.7l-2.5-1.8
            l4-3.6l-3.1-2.3l4-3l-2.6-2l4.2-20.1l-6.3-18.7 M161.4,174.3L161.4,174.3 M108.7,174.3L108.7,174.3" />
      </g>
      <g id="Logos">
        <g>
          <g>
            <path class="st2"
              d="M638,128.5c-3.3-2.2-7-3.8-10.5-5.7c-2.3-1.3-4.7-2.4-6.6-4c-3.3-2.7-2.6-8.1,0.8-10.5
                c5-3.3,13.3-1.5,14.2,5.3c0,0.1,0.1,0.2,0.3,0.2h7.6c0.2,0,0.3-0.1,0.3-0.3c-0.4-4.7-2.2-8.6-5.5-11.1
                c-3.2-2.4-6.8-3.7-10.7-3.7c-20,0-21.8,21.1-11,27.8c1.2,0.8,11.8,6.1,15.5,8.4c3.7,2.3,4.9,6.5,3.3,9.9c-1.5,3-5.3,5.1-9.1,4.9
                c-4.2-0.2-7.4-2.5-8.5-6c-0.2-0.6-0.3-1.9-0.3-2.4c0-0.1-0.1-0.3-0.3-0.3h-8.2c-0.1,0-0.3,0.1-0.3,0.3c0,5.9,1.5,9.2,5.5,12.2
                c3.8,2.8,7.9,4,12.2,4c11.2,0,17-6.3,18.1-12.9C645.6,138.1,643.7,132.3,638,128.5z" />
            <path class="st2"
              d="M287.2,99.8h-12.4c-0.1,0-0.2,0.1-0.3,0.2l-6.7,22.2c-0.1,0.3-0.5,0.3-0.6,0l-6.7-22.2
                c0-0.1-0.1-0.2-0.3-0.2h-12.5c-0.1,0-0.3,0.1-0.3,0.3v56.6c0,0.1,0.1,0.3,0.3,0.3h8.2c0.1,0,0.3-0.1,0.3-0.3v-43
                c0-0.3,0.5-0.4,0.6-0.1l6.8,22.3l0.5,1.6c0,0.1,0.1,0.2,0.3,0.2h6.3c0.1,0,0.2-0.1,0.3-0.2l0.5-1.6l6.8-22.3
                c0.1-0.3,0.6-0.2,0.6,0.1v43c0,0.1,0.1,0.3,0.3,0.3h8.2c0.1,0,0.3-0.1,0.3-0.3v-56.6C287.5,99.9,287.4,99.8,287.2,99.8z" />
            <path class="st2"
              d="M512.6,99.8c-0.1,0-0.2,0.1-0.3,0.2l-6.7,22.2c-0.1,0.3-0.5,0.3-0.6,0l-6.7-22.2c0-0.1-0.1-0.2-0.3-0.2
                h-12.5c-0.1,0-0.3,0.1-0.3,0.3v56.6c0,0.1,0.1,0.3,0.3,0.3h8.2c0.1,0,0.3-0.1,0.3-0.3v-43c0-0.3,0.5-0.4,0.6-0.1l6.8,22.3
                l0.5,1.6c0,0.1,0.1,0.2,0.3,0.2h6.3c0.1,0,0.2-0.1,0.3-0.2l0.5-1.6l6.8-22.3c0.1-0.3,0.6-0.2,0.6,0.1v43c0,0.1,0.1,0.3,0.3,0.3
                h8.2c0.1,0,0.3-0.1,0.3-0.3v-56.6c0-0.1-0.1-0.3-0.3-0.3C525.2,99.8,512.6,99.8,512.6,99.8z" />
            <path class="st2"
              d="M407,99.8h-38.7c-0.1,0-0.3,0.1-0.3,0.3v7.1c0,0.1,0.1,0.3,0.3,0.3h15v49.2c0,0.1,0.1,0.3,0.3,0.3h8.2
                c0.1,0,0.3-0.1,0.3-0.3v-49.2h15c0.1,0,0.3-0.1,0.3-0.3v-7.1C407.3,99.9,407.2,99.8,407,99.8z" />
            <path class="st2"
              d="M435.7,131.9l6-22.1c0.1-0.3,0.5-0.3,0.6,0l6,22.1c0,0.2-0.1,0.4-0.3,0.4h-12
                C435.8,132.3,435.6,132.1,435.7,131.9z M455.3,156.9h7.5c0.2,0,0.3-0.2,0.3-0.4l-15.4-56.8c0-0.1-0.1-0.2-0.3-0.2h-10.7
                c-0.1,0-0.2,0.1-0.3,0.2L421,156.5c0,0.2,0.1,0.4,0.3,0.4h7.5c0.1,0,0.2-0.1,0.3-0.2l4.5-16.5c0-0.1,0.1-0.2,0.3-0.2h16.5
                c0.1,0,0.2,0.1,0.3,0.2l4.5,16.5C455,156.8,455.2,156.9,455.3,156.9z" />
            <path class="st2"
              d="M562.8,131.9l6-22.1c0.1-0.3,0.5-0.3,0.6,0l6,22.1c0,0.2-0.1,0.4-0.3,0.4h-12
                C562.9,132.3,562.7,132.1,562.8,131.9z M582.4,156.9h7.5c0.2,0,0.3-0.2,0.3-0.4l-15.4-56.8c0-0.1-0.1-0.2-0.3-0.2h-10.7
                c-0.1,0-0.2,0.1-0.3,0.2L548,156.5c0,0.2,0.1,0.4,0.3,0.4h7.5c0.1,0,0.2-0.1,0.3-0.2l4.5-16.5c0-0.1,0.1-0.2,0.3-0.2h16.5
                c0.1,0,0.2,0.1,0.3,0.2l4.5,16.5C582.1,156.8,582.2,156.9,582.4,156.9z" />
            <path class="st2"
              d="M320.8,148.6V131c0-0.1,0.1-0.3,0.3-0.3h21.8c0.1,0,0.3-0.1,0.3-0.3v-7.1c0-0.1-0.1-0.3-0.3-0.3h-21.8
                c-0.1,0-0.3-0.1-0.3-0.3v-15c0-0.1,0.1-0.3,0.3-0.3h24.8c0.1,0,0.3-0.1,0.3-0.3V100c0-0.1-0.1-0.3-0.3-0.3h-33.6
                c-0.1,0-0.3,0.1-0.3,0.3v56.5c0,0.1,0.1,0.3,0.3,0.3h34.6c0.1,0,0.3-0.1,0.3-0.3V149c0-0.1-0.1-0.3-0.3-0.3H321
                C320.9,148.9,320.8,148.8,320.8,148.6z" />
            <path class="st2"
              d="M712.8,156.5l-28.3-29.3c-0.1-0.1-0.1-0.3,0-0.4l25.5-26.5c0.2-0.2,0-0.5-0.2-0.5h-10.4
                c-0.1,0-0.1,0-0.2,0.1l-21.6,22.5c-0.2,0.2-0.5,0-0.5-0.2v-22.1c0-0.1-0.1-0.3-0.3-0.3h-8.2c-0.1,0-0.3,0.1-0.3,0.3v56.6
                c0,0.1,0.1,0.3,0.3,0.3h8.2c0.1,0,0.3-0.1,0.3-0.3v-24.9c0-0.2,0.3-0.4,0.5-0.2l24.5,25.3c0,0,0.1,0.1,0.2,0.1h10.4
                C712.8,157,713,156.6,712.8,156.5z" />
          </g>
          <g>
            <polygon class="st3" fill="#E27625" points="192.6,69.7 142.7,106.2 152,84.6" />
            <polygon class="st3" fill="#E27625" points="77.5,69.7 127,106.5 118.1,84.6 				" />
            <polygon class="st3" fill="#E27625"
              points="174.6,154.3 161.4,174.3 189.8,182.1 197.9,154.7 				" />
            <polygon class="st3" fill="#E27625"
              points="72.2,154.7 80.3,182.1 108.7,174.3 95.5,154.3 				" />
            <polygon class="st3" fill="#E27625"
              points="107.2,120.4 99.3,132.2 127.4,133.5 126.5,103.5 				" />
            <polygon class="st3" fill="#E27625"
              points="162.9,120.4 143.3,103.2 142.7,133.5 170.8,132.2 				" />
            <polygon class="st3" fill="#E27625" points="108.7,174.3 125.7,166.2 111.1,154.9 				" />
            <polygon class="st3" fill="#E27625" points="144.4,166.2 161.4,174.3 159,154.9 				" />
            <polygon class="st4" fill="#D7C1B3"
              points="161.4,174.3 144.4,166.2 145.8,177.1 145.6,181.7 				" />
            <polygon class="st4" fill="#D7C1B3"
              points="108.7,174.3 124.5,181.7 124.4,177.1 125.7,166.2 				" />
            <polygon class="st5" fill="#2F343B" points="124.8,147.7 110.7,143.6 120.6,139.1 				" />
            <polygon class="st5" fill="#2F343B" points="145.3,147.7 149.5,139.1 159.5,143.6 				" />
            <polygon class="st6" fill="#CC6228" points="108.7,174.3 111.2,154.3 95.5,154.7 				" />
            <polygon class="st6" fill="#CC6228" points="158.9,154.3 161.4,174.3 174.6,154.7 				" />
            <polygon class="st6" fill="#CC6228"
              points="170.8,132.2 142.7,133.5 145.3,147.7 149.5,139.1 159.5,143.6 				" />
            <polygon class="st6" fill="#CC6228"
              points="110.7,143.6 120.6,139.1 124.8,147.7 127.4,133.5 99.3,132.2 				" />
            <polygon class="st3" fill="#E27625" points="99.3,132.2 111.1,154.9 110.7,143.6 				" />
            <polygon class="st3" fill="#E27625" points="159.5,143.6 159,154.9 170.8,132.2 				" />
            <polygon class="st3" fill="#E27625"
              points="127.4,133.5 124.8,147.7 128.1,164.6 128.8,142.4 				" />
            <polygon class="st3" fill="#E27625"
              points="142.7,133.5 141.3,142.3 142,164.6 145.3,147.7 				" />
            <polygon class="st1" fill="#F5841F"
              points="145.3,147.7 142,164.6 144.4,166.2 159,154.9 159.5,143.6 				" />
            <polygon class="st1" fill="#F5841F"
              points="110.7,143.6 111.1,154.9 125.7,166.2 128.1,164.6 124.8,147.7 				" />
            <polygon class="st7" fill="#C0AD9E"
              points="145.6,181.7 145.8,177.1 144.5,176.1 125.6,176.1 124.4,177.1 124.5,181.7 108.7,174.3 
                114.2,178.8 125.4,186.5 144.6,186.5 155.9,178.8 161.4,174.3 				" />
            <polygon class="st5" fill="#2F343B"
              points="144.4,166.2 142,164.6 128.1,164.6 125.7,166.2 124.4,177.1 125.6,176.1 144.5,176.1 145.8,177.1 
                        " />
            <polygon class="st8" fill="#763E1A"
              points="194.7,108.5 198.9,88.4 192.6,69.7 144.4,104.9 162.9,120.4 189.1,128 194.9,121.3 192.4,119.5 
                196.4,115.9 193.3,113.6 197.3,110.5 				" />
            <polygon class="st8" fill="#763E1A"
              points="71.2,88.4 75.4,108.5 72.7,110.5 76.8,113.6 73.7,115.9 77.7,119.5 75.2,121.3 81,128 107.2,120.4 
                125.7,104.9 77.5,69.7 				" />
            <polygon class="st1" fill="#F5841F"
              points="189.1,128 162.9,120.4 170.8,132.2 159,154.9 174.6,154.7 197.9,154.7 				" />
            <polygon class="st1" fill="#F5841F"
              points="107.2,120.4 81,128 72.2,154.7 95.5,154.7 111.1,154.9 99.3,132.2 				" />
            <polygon class="st1" fill="#F5841F"
              points="142.7,133.5 144.4,104.9 152,84.6 118.1,84.6 125.7,104.9 127.4,133.5 128,142.4 128.1,164.6 
                142,164.6 142.1,142.4 				" />
          </g>
        </g>
      </g>
    </g>
  </symbol>

  <!-- bitgo -->
  <symbol id="bitgo" viewBox="0 0 114 29">
    <g clip-path="url(#clip0_1_875)">
      <path
        d="M12.2119 18.0093C13.3173 18.0272 15.7222 18.0661 15.7392 16.5233C15.756 14.9268 13.3653 14.9759 12.242 14.999C12.1264 15.0013 12.0242 15.0034 11.9395 15.0034V18.0062C12.0169 18.0062 12.1088 18.0076 12.2119 18.0093Z"
        fill="#009FE8" />
      <path
        d="M12.122 13.6368C13.0128 13.6669 15.1102 13.7377 15.1275 12.2972C15.1443 10.8361 13.1524 10.8814 12.2128 10.9028C12.1155 10.905 12.0293 10.907 11.958 10.907V13.6318C12.0064 13.6329 12.0613 13.6348 12.122 13.6368Z"
        fill="#009FE8" />
      <path fill-rule="evenodd" clip-rule="evenodd"
        d="M24.7475 9.75784C24.7475 24.5492 12.9033 28.5714 12.9033 28.5714C12.9033 28.5714 1.05908 24.5492 1.05908 9.75784V4.43817C1.05908 3.86357 1.50393 3.38165 2.07854 3.34458C4.22865 3.2519 9.32595 2.80704 12.9033 0.897888C16.4806 2.80704 21.5779 3.2519 23.728 3.34458C24.3026 3.38165 24.7475 3.86357 24.7475 4.43817V9.75784ZM14.4046 9.36861C16.1655 9.5354 17.5371 10.0915 17.6854 11.7041C17.7966 12.8904 17.2962 13.5947 16.4991 13.9654C17.7966 14.2805 18.5937 15.0775 18.4268 16.8014C18.2044 18.9515 16.6104 19.526 14.312 19.6372V21.8986H12.9403V19.6743C12.5882 19.6743 12.2175 19.6743 11.8468 19.6558V21.8986H10.4936V19.6372C10.1786 19.6187 8.00986 19.6372 8.00986 19.6372L8.02846 17.9876H9.5669V10.7773H7.82455V9.35008C7.82455 9.35008 10.2713 9.33149 10.5678 9.33149L10.5493 7.08873H11.9209V9.29444H13.033V7.10726H14.4046V9.36861Z"
        fill="#009FE8" />
      <path
        d="M48.4528 19.5725C48.4528 20.7587 48.2118 21.7411 47.7485 22.5381C47.2851 23.3351 46.6548 23.9839 45.8949 24.4658C45.1164 24.9477 44.2453 25.2999 43.2629 25.5223C42.2805 25.7262 41.2611 25.8374 40.2416 25.8374H31.6597V4.28064H40.2416C41.0757 4.28064 41.9283 4.37331 42.7995 4.54013C43.6706 4.70696 44.4677 5.00352 45.172 5.42984C45.8764 5.85616 46.451 6.41222 46.9144 7.11658C47.3592 7.82089 47.5816 8.72916 47.5816 9.82273C47.5816 11.0275 47.2666 12.01 46.5993 12.7884C45.9505 13.5669 45.0979 14.1415 44.0413 14.4751V14.5308C44.653 14.642 45.2276 14.8273 45.7652 15.1054C46.3027 15.3834 46.7661 15.7356 47.1554 16.1619C47.5446 16.5882 47.8597 17.0887 48.1007 17.6632C48.323 18.2193 48.4528 18.8495 48.4528 19.5725ZM42.54 10.5271C42.54 9.80421 42.2619 9.26672 41.7059 8.93306C41.1498 8.59941 40.3157 8.43255 39.2222 8.43255H36.6642V12.8811H39.4631C40.4455 12.8811 41.1869 12.6772 41.7244 12.288C42.2805 11.8802 42.54 11.2871 42.54 10.5271ZM43.2444 19.0719C43.2444 18.1823 42.9107 17.5521 42.2434 17.2184C41.5761 16.8663 40.6864 16.6994 39.5557 16.6994H36.6642V21.6299H39.5929C40.0006 21.6299 40.427 21.5928 40.8532 21.5187C41.2796 21.4445 41.6873 21.3147 42.0395 21.148C42.3917 20.9626 42.6883 20.7031 42.9107 20.3694C43.1332 20.0358 43.2444 19.6095 43.2444 19.0719Z" />
      <path
        d="M55.3666 5.83765C55.3666 6.2269 55.2925 6.57908 55.1442 6.91272C54.9959 7.24639 54.792 7.54292 54.5325 7.78388C54.2731 8.02484 53.9765 8.21022 53.6243 8.35849C53.2721 8.50676 52.9014 8.5624 52.5122 8.5624C51.6966 8.5624 51.0293 8.30285 50.4733 7.74683C49.9172 7.20927 49.6577 6.56055 49.6577 5.81912C49.6577 5.44842 49.7318 5.09624 49.8801 4.7626C50.0284 4.42896 50.2323 4.13239 50.4918 3.89143C50.7513 3.65046 51.0664 3.44658 51.4 3.29829C51.7522 3.15001 52.1229 3.07587 52.5307 3.07587C52.9199 3.07587 53.2906 3.15001 53.6428 3.27976C53.995 3.42804 54.3101 3.6134 54.5511 3.85436C54.8105 4.09532 55.0145 4.39189 55.1627 4.72552C55.2925 5.0777 55.3666 5.44841 55.3666 5.83765ZM50.0099 10.6754H55.0145V25.8374H50.0099V10.6754Z" />
      <path
        d="M64.0598 14.3825V20.1841C64.0598 20.907 64.1895 21.426 64.4676 21.7967C64.7456 22.1488 65.2275 22.3342 65.9504 22.3342C66.1914 22.3342 66.4508 22.3157 66.7289 22.2786C67.0069 22.2415 67.2294 22.1859 67.4147 22.0933L67.4703 25.7448C67.1181 25.8745 66.6918 25.9671 66.1543 26.0598C65.6167 26.1525 65.0978 26.1896 64.5602 26.1896C63.5408 26.1896 62.6882 26.0598 62.0024 25.8003C61.3165 25.5409 60.7604 25.1887 60.3342 24.7068C59.9264 24.2248 59.6113 23.6688 59.4259 23.0015C59.2406 22.3342 59.1479 21.6113 59.1479 20.7958V14.3825H56.7568V10.6753H59.1664V6.69025H64.0783V10.6753H67.6371V14.3825H64.0598Z" />
      <path
        d="M85.709 25.8745C84.3003 26.2267 82.7623 26.3935 81.0937 26.3935C79.3698 26.3935 77.7759 26.1155 76.3305 25.5779C74.8845 25.0219 73.6244 24.2619 72.5862 23.261C71.548 22.2601 70.7144 21.0738 70.1393 19.6836C69.5462 18.2935 69.2498 16.7365 69.2498 15.0312C69.2498 13.3075 69.5462 11.7505 70.1579 10.3418C70.751 8.93308 71.5853 7.74681 72.6415 6.76441C73.6984 5.78203 74.9405 5.02208 76.3485 4.50309C77.7759 3.98409 79.2959 3.70605 80.9458 3.70605C82.651 3.70605 84.2263 3.96555 85.691 4.48455C87.155 5.00354 88.3412 5.68935 89.2494 6.57906L85.9689 10.3232C85.4685 9.73006 84.7828 9.24814 83.9671 8.87744C83.1328 8.50674 82.1872 8.32142 81.1311 8.32142C80.2228 8.32142 79.3698 8.48822 78.6102 8.82187C77.8319 9.15552 77.1641 9.61891 76.6084 10.2306C76.034 10.8237 75.5889 11.5466 75.2923 12.3622C74.9771 13.1777 74.8105 14.0859 74.8105 15.0498C74.8105 16.0507 74.9585 16.9589 75.237 17.7931C75.5149 18.6272 75.9414 19.35 76.4971 19.9432C77.0529 20.5363 77.7392 21.0182 78.5729 21.3519C79.3885 21.6855 80.3341 21.8523 81.3903 21.8523C82.002 21.8523 82.5771 21.8152 83.1328 21.7226C83.6706 21.6299 84.1897 21.4816 84.6528 21.2777V17.3482H80.538V13.1036H89.4347V24.5214C88.3412 25.0775 87.1177 25.5224 85.709 25.8745Z" />
      <path
        d="M108.174 18.2008C108.174 19.4427 107.952 20.5549 107.507 21.5743C107.062 22.5752 106.45 23.4279 105.672 24.1322C104.894 24.8365 104.004 25.3741 102.985 25.7633C101.965 26.1526 100.89 26.3379 99.722 26.3379C98.5912 26.3379 97.4977 26.1526 96.4781 25.7633C95.4593 25.3741 94.551 24.8365 93.7907 24.1322C93.031 23.4279 92.4193 22.5752 91.9742 21.5743C91.5297 20.5734 91.3071 19.4427 91.3071 18.2008C91.3071 16.959 91.5297 15.8469 91.9742 14.8459C92.4193 13.845 93.031 13.011 93.7907 12.3251C94.551 11.6393 95.4406 11.1017 96.4781 10.7496C97.4977 10.3789 98.5912 10.1935 99.722 10.1935C100.872 10.1935 101.965 10.3789 102.985 10.7496C104.004 11.1203 104.894 11.6393 105.672 12.3251C106.45 13.011 107.043 13.8636 107.507 14.8459C107.952 15.8469 108.174 16.959 108.174 18.2008ZM103.374 18.2008C103.374 17.7189 103.3 17.237 103.133 16.7736C102.966 16.3102 102.743 15.9025 102.428 15.5318C102.132 15.1796 101.742 14.883 101.298 14.6605C100.853 14.4382 100.334 14.327 99.7407 14.327C99.1476 14.327 98.6285 14.4382 98.1841 14.6605C97.7389 14.883 97.3684 15.1796 97.0719 15.5318C96.7754 15.8839 96.5528 16.2917 96.4042 16.7736C96.2563 17.237 96.1816 17.7189 96.1816 18.2008C96.1816 18.6828 96.2563 19.1647 96.4042 19.6281C96.5528 20.0915 96.7754 20.5178 97.0899 20.8885C97.3864 21.2592 97.7763 21.5743 98.2207 21.7968C98.6659 22.0192 99.185 22.1304 99.778 22.1304C100.371 22.1304 100.89 22.0192 101.335 21.7968C101.78 21.5743 102.15 21.2777 102.465 20.8885C102.762 20.5178 103.003 20.0915 103.151 19.6281C103.3 19.1647 103.374 18.6828 103.374 18.2008Z" />
      <path
        d="M110.714 22.8718C111.659 22.8718 112.456 23.6132 112.456 24.5957C112.456 25.5965 111.641 26.3379 110.714 26.3379C109.768 26.3379 108.953 25.5965 108.953 24.5957C108.953 23.5947 109.75 22.8718 110.714 22.8718ZM110.714 23.1499C109.917 23.1499 109.286 23.7801 109.286 24.5957C109.286 25.4483 109.917 26.0414 110.714 26.0414C111.511 26.0414 112.123 25.4298 112.123 24.5957C112.123 23.7616 111.492 23.1499 110.714 23.1499ZM110.343 25.5965H110.028V23.5947H110.788C111.27 23.5947 111.492 23.7801 111.492 24.1693C111.492 24.5215 111.27 24.6883 110.973 24.7254L111.548 25.5965H111.214L110.677 24.7254H110.325V25.5965H110.343ZM110.343 24.4844H110.714C111.084 24.4844 111.214 24.3732 111.214 24.1508C111.214 23.9654 111.122 23.8542 110.769 23.8542H110.361V24.4844H110.343Z" />
    </g>
    <defs>
      <clipPath id="clip0_1_875">
        <rect width="112.669" height="28.34" fill="white" transform="translate(0.4104 0.26001)" />
      </clipPath>
    </defs>
  </symbol>

  <!-- coinbase -->
  <symbol id="coinbase" viewBox="0 0 155 29">
    <g clip-path="url(#clip0_1_887)">
      <path
        d="M31.3225 8.3438C25.6734 8.3438 21.3021 12.5806 21.3021 18.2969C21.3021 24.0132 25.6062 28.25 31.3225 28.25C37.0388 28.25 41.41 23.946 41.41 18.2969C41.41 12.6478 37.106 8.3438 31.3225 8.3438ZM31.3897 24.0804C28.1616 24.0804 25.8751 21.5922 25.8751 18.2297C25.8751 14.8671 28.1616 12.3788 31.3897 12.3788C34.6177 12.3788 36.9715 14.8671 36.9715 18.2297C36.9715 21.5922 34.5505 24.0804 31.3897 24.0804ZM42.6205 12.6478H45.3778V27.8465H49.8836V8.68004H42.6205V12.6478ZM10.0713 12.4461C12.425 12.4461 14.3081 13.8583 14.9805 16.0104H19.6881C18.8139 11.4373 15.0478 8.27656 10.0713 8.27656C4.48946 8.3438 0.118164 12.5806 0.118164 18.2969C0.118164 24.0132 4.4222 28.25 10.1385 28.25C14.9805 28.25 18.8139 25.1564 19.6881 20.5162H14.9805C14.3081 22.6682 12.425 24.1477 10.1385 24.1477C6.91047 24.1477 4.62395 21.6594 4.62395 18.2969C4.62395 14.9343 6.84323 12.4461 10.0713 12.4461ZM127.424 16.4138L124.128 15.9431C122.581 15.7414 121.438 15.2034 121.438 13.9929C121.438 12.6478 122.918 11.9753 124.868 11.9753C127.02 11.9753 128.432 12.9168 128.702 14.3963H133.005C132.535 10.5631 129.576 8.27656 125.003 8.27656C120.295 8.27656 117.134 10.6975 117.134 14.1273C117.134 17.3554 119.152 19.3057 123.321 19.8437L126.617 20.3144C128.231 20.5162 129.105 21.1887 129.105 22.3319C129.105 23.8787 127.558 24.484 125.406 24.484C122.783 24.484 121.304 23.4079 121.035 21.7939H116.664C117.067 25.56 120.026 28.1827 125.339 28.1827C130.181 28.1827 133.476 25.9635 133.476 22.1302C133.476 18.7677 131.122 17.0192 127.424 16.4138ZM47.6644 0.811737C46.0503 0.811737 44.7726 2.02225 44.7726 3.63626C44.7726 5.25028 45.9831 6.46079 47.6644 6.46079C49.2784 6.46079 50.5561 5.25028 50.5561 3.63626C50.5561 2.02225 49.2784 0.811737 47.6644 0.811737ZM113.166 15.2706C113.166 11.1011 110.611 8.3438 105.298 8.3438C100.254 8.3438 97.4296 10.8993 96.8243 14.7999H101.263C101.465 13.2531 102.676 12.0426 105.231 12.0426C107.518 12.0426 108.593 13.0514 108.593 14.2619C108.593 15.8759 106.576 16.2794 104.02 16.5484C100.59 16.9519 96.3537 18.0951 96.3537 22.5337C96.3537 25.9635 98.9091 28.1827 103.012 28.1827C106.24 28.1827 108.19 26.8377 109.199 24.753C109.333 26.6359 110.745 27.8465 112.763 27.8465H115.386V23.8787H113.166V15.2706ZM108.728 20.0454C108.728 22.6009 106.509 24.484 103.752 24.484C102.07 24.484 100.658 23.8114 100.658 22.2647C100.658 20.3816 102.944 19.8437 105.029 19.6419C107.047 19.4401 108.123 19.0367 108.728 18.1624V20.0454ZM85.0559 8.3438C82.5676 8.3438 80.4829 9.35259 79.0034 11.1011V0.609985H74.5644V27.8465H78.9357V25.3582C80.4151 27.174 82.5676 28.25 85.0559 28.25C90.436 28.25 94.4708 24.0132 94.4708 18.2969C94.4708 12.5806 90.3683 8.3438 85.0559 8.3438ZM84.3835 24.0804C81.1552 24.0804 78.8687 21.5922 78.8687 18.2297C78.8687 14.8671 81.2222 12.3788 84.4506 12.3788C87.6782 12.3788 89.9648 14.8671 89.9648 18.2297C89.9648 21.6594 87.6112 24.0804 84.3835 24.0804ZM63.8718 8.3438C60.98 8.3438 59.097 9.55429 57.9537 11.1683V8.68004H53.5152V27.8465H57.9537V17.4226C57.9537 14.4636 59.8367 12.4461 62.594 12.4461C65.1495 12.4461 66.7635 14.2619 66.7635 16.8846V27.8465H71.202V16.5484C71.202 11.7063 68.7138 8.3438 63.8718 8.3438ZM154.727 17.6916C154.727 12.1771 150.693 8.3438 145.312 8.3438C139.596 8.3438 135.359 12.6478 135.359 18.2969C135.359 24.2822 139.865 28.25 145.38 28.25C150.02 28.25 153.651 25.4927 154.593 21.5922H149.953C149.28 23.2735 147.666 24.2822 145.447 24.2822C142.555 24.2822 140.403 22.5337 139.932 19.3729H154.727V17.6916ZM140.201 16.2121C140.941 13.5221 142.891 12.2444 145.245 12.2444C147.801 12.2444 149.684 13.6566 150.154 16.2121H140.201Z"
        fill="#0052FF" />
    </g>
    <defs>
      <clipPath id="clip0_1_887">
        <rect width="154.784" height="27.64" transform="translate(0.118164 0.609985)" />
      </clipPath>
    </defs>
  </symbol>

  <!-- trustWallet -->
  <symbol id="trustWallet" viewBox="0 0 171 43">
    <g clip-path="url(#clip0_1_891)">
      <path
        d="M14.8696 14.7033C16.8467 14.5539 19.7722 14.0157 22.616 12.1342C25.4641 14.0185 28.3949 14.5555 30.376 14.704C30.2843 18.3242 30.1046 20.9164 29.8175 22.8253C29.478 25.0834 29.0152 26.181 28.5407 26.8404C28.0771 27.4847 27.4607 27.9205 26.2412 28.5945C26.0484 28.7011 25.8428 28.8124 25.6253 28.9302L25.624 28.9308C24.7854 29.3851 23.7685 29.9359 22.616 30.6814C21.4654 29.937 20.4504 29.3868 19.6133 28.9329C19.3943 28.8143 19.1875 28.7022 18.9937 28.595C17.776 27.9213 17.1616 27.4858 16.6995 26.8423C16.2263 26.183 15.7647 25.0852 15.4263 22.8263C15.1402 20.917 14.9612 18.3241 14.8696 14.7033Z"
        fill="#009FE8" />
      <path fill-rule="evenodd" clip-rule="evenodd"
        d="M15.2537 0H29.2654C37.1754 0 43.5877 6.41231 43.5877 14.3223V28.334C43.5877 36.244 37.1754 42.6563 29.2654 42.6563H15.2537C7.34371 42.6563 0.931396 36.244 0.931396 28.334V14.3223C0.931396 6.41231 7.34371 0 15.2537 0ZM23.9592 7.91638C23.1814 7.26677 22.0502 7.26677 21.2724 7.91638C18.0719 10.5896 14.4203 10.5717 12.9325 10.5644C12.8608 10.564 12.7941 10.5637 12.7328 10.5637C12.1715 10.5637 11.6337 10.7888 11.2398 11.1887C10.846 11.5886 10.6289 12.1297 10.6374 12.691C10.7093 17.4572 10.8995 20.9003 11.2812 23.4474C11.6624 25.9917 12.2613 27.847 13.2947 29.2865C14.3394 30.7417 15.6779 31.5506 16.9646 32.2625C17.1937 32.3891 17.4247 32.5146 17.6592 32.642C18.7732 33.2469 19.9657 33.8945 21.3943 34.9194C22.1244 35.4431 23.1072 35.4431 23.8374 34.9194C25.2673 33.8936 26.4614 33.2457 27.5772 32.6402C27.8105 32.5137 28.0405 32.3888 28.2685 32.2629C29.5561 31.5513 30.8961 30.7429 31.9427 29.2884C32.9784 27.849 33.5794 25.9936 33.9621 23.4485C34.3453 20.9008 34.5363 17.4574 34.6082 12.691C34.6167 12.1297 34.3996 11.5886 34.0058 11.1887C33.6119 10.7888 33.074 10.5637 32.5128 10.5637C32.4508 10.5637 32.3834 10.564 32.3111 10.5644C30.811 10.5716 27.1596 10.5894 23.9592 7.91638Z"
        fill="#009FE8" />
      <path
        d="M57.8963 17.1729H53.2656V14.4437H65.8757V17.1729H61.2449V28.9151H57.8963V17.1729ZM69.0481 19.2608C69.4338 18.7232 69.9509 18.3165 70.5983 18.0408C71.2598 17.7654 72.0175 17.6274 72.8719 17.6274V20.6046C72.5145 20.5768 72.2733 20.563 72.1488 20.563C71.2253 20.563 70.5022 20.8249 69.9781 21.3487C69.4544 21.8586 69.1925 22.6303 69.1925 23.664V28.9151H65.9677V17.7927H69.0481V19.2608ZM84.8354 17.7927V28.9151H81.7751V27.5918C81.3478 28.074 80.8384 28.4462 80.2452 28.7082C79.6528 28.9562 79.012 29.0804 78.3228 29.0804C76.8621 29.0804 75.7048 28.6599 74.8504 27.8193C73.996 26.9787 73.5688 25.7314 73.5688 24.0774V17.7927H76.7929V23.6019C76.7929 25.3935 77.5444 26.2895 79.0465 26.2895C79.818 26.2895 80.4388 26.0415 80.9075 25.545C81.3755 25.0351 81.6098 24.2843 81.6098 23.2918V17.7927H84.8354ZM90.3242 29.0804C89.4007 29.0804 88.4979 28.97 87.6165 28.7497C86.7337 28.5151 86.0313 28.2259 85.5073 27.8814L86.5823 25.566C87.0786 25.8828 87.678 26.1447 88.381 26.3512C89.0841 26.5443 89.7726 26.6408 90.448 26.6408C91.8126 26.6408 92.4949 26.3034 92.4949 25.6277C92.4949 25.3109 92.3082 25.0834 91.937 24.9457C91.5644 24.8081 90.9927 24.6906 90.2206 24.594C89.3115 24.4564 88.5601 24.2977 87.9676 24.119C87.3745 23.9398 86.8581 23.6225 86.4171 23.1679C85.9899 22.713 85.7762 22.0655 85.7762 21.2244C85.7762 20.5219 85.976 19.9016 86.3756 19.364C86.789 18.8125 87.3814 18.3853 88.1536 18.0823C88.9389 17.7793 89.8625 17.6274 90.9236 17.6274C91.7096 17.6274 92.488 17.7172 93.2595 17.8964C94.0455 18.0617 94.6932 18.2959 95.2034 18.5989L94.1277 20.8937C93.1496 20.3427 92.0815 20.067 90.9236 20.067C90.2344 20.067 89.718 20.1635 89.373 20.3561C89.0288 20.5492 88.8566 20.7972 88.8566 21.1006C88.8566 21.4452 89.0426 21.6861 89.4145 21.8241C89.7864 21.9618 90.3796 22.0928 91.1925 22.217C92.1022 22.3685 92.8461 22.5338 93.4247 22.7131C94.004 22.8784 94.5066 23.1885 94.9338 23.6435C95.361 24.0979 95.5746 24.7321 95.5746 25.545C95.5746 26.2341 95.3686 26.8477 94.9552 27.3849C94.5411 27.9225 93.9349 28.343 93.1357 28.646C92.3504 28.9356 91.413 29.0804 90.3242 29.0804ZM103.498 28.3774C103.181 28.6116 102.788 28.7908 102.32 28.9151C101.865 29.025 101.382 29.0804 100.873 29.0804C99.5495 29.0804 98.5229 28.7426 97.7923 28.0673C97.0754 27.392 96.7173 26.3994 96.7173 25.0905V20.5219H95.0015V18.0408H96.7173V15.333H99.9422V18.0408H102.712V20.5219H99.9422V25.0489C99.9422 25.5178 100.06 25.8828 100.293 26.1448C100.542 26.3927 100.886 26.517 101.328 26.517C101.837 26.517 102.271 26.3789 102.63 26.1032L103.498 28.3774ZM130.781 14.4437L126.047 28.9151H122.451L119.266 19.116L115.979 28.9151H112.403L107.649 14.4437H111.122L114.388 24.615L117.799 14.4437H120.899L124.207 24.6977L127.577 14.4437H130.781ZM134.841 17.6274C136.564 17.6274 137.887 18.0408 138.811 18.868C139.734 19.6809 140.195 20.9143 140.195 22.5682V28.9151H137.177V27.5296C136.572 28.5633 135.441 29.0804 133.787 29.0804C132.933 29.0804 132.189 28.9356 131.554 28.646C130.934 28.3569 130.458 27.9569 130.128 27.447C129.797 26.9371 129.632 26.3584 129.632 25.7104C129.632 24.6772 130.018 23.8638 130.79 23.2712C131.575 22.6786 132.781 22.3824 134.407 22.3824H136.971C136.971 21.6794 136.757 21.1418 136.33 20.7699C135.902 20.3838 135.262 20.1908 134.407 20.1908C133.815 20.1908 133.229 20.2873 132.65 20.4803C132.085 20.6595 131.603 20.9076 131.203 21.2244L130.045 18.9712C130.651 18.544 131.375 18.2133 132.216 17.979C133.07 17.7445 133.946 17.6274 134.841 17.6274ZM134.593 26.9094C135.145 26.9094 135.634 26.7856 136.061 26.5376C136.489 26.2757 136.791 25.8967 136.971 25.4007V24.2633H134.758C133.436 24.2633 132.774 24.6977 132.774 25.566C132.774 25.9794 132.933 26.3101 133.249 26.5581C133.58 26.7923 134.028 26.9094 134.593 26.9094ZM141.874 13.5758H145.099V28.9151H141.874V13.5758ZM146.852 13.5758H150.077V28.9151H146.852V13.5758ZM162.724 23.395C162.724 23.4366 162.704 23.7262 162.662 24.2633H154.248C154.4 24.9524 154.758 25.4968 155.323 25.8967C155.888 26.2962 156.591 26.496 157.432 26.496C158.011 26.496 158.521 26.4133 158.962 26.248C159.416 26.0688 159.837 25.7935 160.222 25.4212L161.938 27.2817C160.891 28.4806 159.361 29.0804 157.349 29.0804C156.095 29.0804 154.985 28.8391 154.02 28.3569C153.056 27.8604 152.312 27.1784 151.788 26.3101C151.264 25.4418 151.002 24.4564 151.002 23.3539C151.002 22.2653 151.257 21.2865 151.768 20.4183C152.292 19.5365 153.001 18.8541 153.897 18.3719C154.806 17.8754 155.819 17.6274 156.936 17.6274C158.024 17.6274 159.01 17.862 159.892 18.3304C160.774 18.7991 161.463 19.4744 161.959 20.3561C162.469 21.2244 162.724 22.2375 162.724 23.395ZM156.956 20.067C156.226 20.067 155.612 20.2734 155.117 20.6872C154.62 21.1006 154.317 21.6655 154.206 22.3824H159.685C159.575 21.6794 159.271 21.1212 158.775 20.7078C158.279 20.2806 157.673 20.067 156.956 20.067ZM170.804 28.3774C170.487 28.6116 170.094 28.7908 169.626 28.9151C169.171 29.025 168.689 29.0804 168.179 29.0804C166.856 29.0804 165.829 28.7426 165.098 28.0673C164.381 27.392 164.023 26.3994 164.023 25.0905V20.5219H162.308V18.0408H164.023V15.333H167.248V18.0408H170.019V20.5219H167.248V25.0489C167.248 25.5178 167.365 25.8828 167.599 26.1448C167.848 26.3927 168.192 26.517 168.634 26.517C169.143 26.517 169.577 26.3789 169.936 26.1032L170.804 28.3774Z" />
    </g>
    <defs>
      <clipPath id="clip0_1_891">
        <rect width="170.057" height="42.86" fill="white" transform="translate(0.931396)" />
      </clipPath>
    </defs>
  </symbol>

  <!-- exodus -->
  <symbol id="exodus" viewBox="0 0 127 35">
    <g clip-path="url(#clip0_1_897)">
      <path
        d="M23.6473 17.2372L33.4711 27.0611H29.995C29.4093 27.0611 28.8237 26.8154 28.408 26.3998L19.2832 17.2372L28.4459 8.05576C28.8615 7.64011 29.4282 7.39453 30.0327 7.41341H33.4711L23.6473 17.2372ZM5.64327 8.05576C5.22765 7.64011 4.66089 7.39453 4.05635 7.41341H0.599121L10.4229 17.2372L0.599121 27.0611H4.07524C4.66089 27.0611 5.24654 26.8154 5.66216 26.3998L14.8059 17.2184L5.64327 8.05576ZM17.0351 19.4854L7.85365 28.648C7.438 29.0636 7.21131 29.6303 7.21131 30.2349V33.6921L17.0351 23.8683L26.859 33.6921V30.216C26.859 29.6303 26.6322 29.0447 26.2166 28.6291L17.0351 19.4854ZM17.0351 14.9891L26.2166 5.8265C26.6322 5.41088 26.859 4.84411 26.859 4.23958V0.782349L17.0351 10.6061L7.21131 0.782349V4.23958C7.21131 4.82523 7.438 5.41088 7.85365 5.8265L17.0351 14.9891Z"
        fill="url(#paint0_linear_1_897)" />
      <path fill-rule="evenodd" clip-rule="evenodd"
        d="M106.944 5.55254V25.748C106.926 26.0692 107.058 26.3904 107.285 26.6359C107.511 26.8815 107.833 27.0138 108.154 27.0138H108.512C108.853 27.0138 109.174 26.8815 109.401 26.6359C109.627 26.3904 109.76 26.0692 109.76 25.748V5.55254H112.102V26.277C112.102 27.8451 110.856 29.1108 109.287 29.1486H107.493C106.718 29.1486 105.981 28.8652 105.433 28.3173C104.886 27.7694 104.583 27.0516 104.583 26.277V5.55254H106.944ZM123.607 5.32583C125.175 5.36362 126.441 6.83719 126.441 8.42412V10.2944C126.441 10.5589 126.271 10.7856 126.007 10.8612L124.061 11.409V8.72638C124.061 8.04628 123.494 7.4795 122.814 7.4795C122.134 7.4795 121.567 8.02741 121.567 8.72638V10.9556C121.567 12.3348 122.587 14.0917 122.587 14.0917L125.383 19.4759C126.517 21.6107 126.422 23.1787 126.422 23.1787V26.1637C126.422 26.9382 126.12 27.6939 125.572 28.2607C125.024 28.8274 124.269 29.1297 123.475 29.1486H122.002C120.414 29.0541 119.168 27.7506 119.168 26.1637V22.8198C119.168 22.5553 119.338 22.3286 119.602 22.253L121.548 21.7052V25.7858C121.548 26.4659 122.115 27.0138 122.814 27.0138C123.494 27.0138 124.061 26.4471 124.042 25.748V23.0843C124.042 21.7241 123.021 19.9104 123.021 19.9104L120.264 14.5262C119.13 12.3915 119.225 10.8234 119.225 10.8234V8.42412C119.225 6.79941 120.528 5.32583 122.172 5.32583H123.607ZM79.3811 5.32583C80.9684 5.40141 82.215 6.72384 82.215 8.31073V26.2392C82.1963 27.8073 80.9491 29.0919 79.3811 29.1674H77.5863C75.9809 29.1486 74.677 27.845 74.6583 26.2392V8.29186C74.6583 7.51732 74.9605 6.76162 75.5087 6.19487C76.0563 5.62811 76.812 5.32583 77.6056 5.30695L79.3811 5.32583ZM52.4602 5.55254L51.8935 7.51732C51.8179 7.78177 51.5912 7.95184 51.3267 7.95184H47.5672V15.4708H51.459L50.8922 17.4356C50.8167 17.6812 50.59 17.8701 50.3254 17.8701H47.5672V26.5415H52.4602L51.9124 28.4874C51.8368 28.7519 51.6101 28.9219 51.3456 28.9219H45.2246V5.55254H52.4602ZM94.2302 5.55254C95.8549 5.57144 97.1395 6.87498 97.1395 8.48081V25.9747C97.1395 27.5806 95.8363 28.903 94.2302 28.903H89.6963V5.55254H94.2302ZM63.3609 13.0715L65.5146 5.55254H67.9139L64.57 17.2466L67.9327 28.9408H65.5335L63.3609 21.4029L61.2072 28.9219H58.808L62.1518 17.2466L58.7891 5.55254H61.1883L63.3609 13.0715ZM78.5881 27.0516C78.9275 27.0516 79.249 26.9005 79.4758 26.6548C79.7026 26.4092 79.8346 26.0881 79.8159 25.748V8.72638C79.8346 8.3863 79.7026 8.06516 79.4758 7.81958C79.249 7.57401 78.9275 7.44175 78.5881 7.42281H78.2286C77.5296 7.46063 76.982 8.02741 76.982 8.72638V25.748C76.982 26.4471 77.5296 27.0138 78.2286 27.0516H78.5881ZM93.5693 26.5604C94.2302 26.5604 94.8158 26.2204 94.8158 25.3135V9.1609C94.8158 8.29186 94.2302 7.95184 93.5693 7.95184H92.0386V26.5604H93.5693Z"
      />
    </g>
    <defs>
      <linearGradient id="paint0_linear_1_897" x1="0.58816" y1="17.2337" x2="21.3728" y2="17.2337"
        gradientUnits="userSpaceOnUse">
        <stop stop-color="#00BFFF" />
        <stop offset="1" stop-color="#6619FF" />
      </linearGradient>
      <clipPath id="clip0_1_897">
        <rect width="126.52" height="33.8769" fill="white"
          transform="translate(-0.00976562 0.491516)" />
      </clipPath>
    </defs>
  </symbol>

  <!-- tickRight -->
  <symbol id="tickRight" viewBox="0 0 24.00 24.00" fill="none">
    <g id="SVGRepo_bgCarrier" stroke-width="0"></g>
    <g id="SVGRepo_tracerCarrier" stroke-linecap="round" stroke-linejoin="round"></g>
    <g id="SVGRepo_iconCarrier">
      <path d="M10 7L15 12L10 17" stroke="inherit" stroke-width="inherit"
        stroke-linecap="round" stroke-linejoin="round"></path>
    </g>
  </symbol>

  <!-- arrowhead -->
  <symbol id="arrowhead" viewBox="0 0 15 9">
    <path
      d="M7.33333 2.31382L1.54 8.03382C1.39333 8.22937 1.18556 8.32715 0.916667 8.32715C0.647778 8.32715 0.427778 8.24159 0.256667 8.07048C0.0855556 7.89937 0 7.67937 0 7.41048C0 7.14159 0.0977778 6.93382 0.293333 6.78715L6.67333 0.333816C6.86889 0.138261 7.08889 0.0404825 7.33333 0.0404825C7.57778 0.0404825 7.79778 0.138261 7.99333 0.333816L14.3733 6.78715C14.5689 6.93382 14.6667 7.14159 14.6667 7.41048C14.6667 7.67937 14.5811 7.89937 14.41 8.07048C14.2389 8.24159 14.0189 8.32715 13.75 8.32715C13.4811 8.32715 13.2733 8.22937 13.1267 8.03382L7.33333 2.31382Z" />
  </symbol>

  <!-- arrowUpRight -->
  <symbol id="arrowUpRight" viewBox="0 0 16 16">
    <g id="SVGRepo_bgCarrier" stroke-width="0"></g>
    <g id="SVGRepo_tracerCarrier" stroke-linecap="round" stroke-linejoin="round"></g>
    <g id="SVGRepo_iconCarrier">
      <rect width="16" height="16" id="icon-bound" fill="none"></rect>
      <path d="M4,4L10.586,4L0.979,13.607L2.393,15.021L12,5.414L12,12L14,12L14,2L4,2L4,4Z"></path>
    </g>
  </symbol>
</svg>