<svg display="none" xmlns="http://www.w3.org/2000/svg">
  <!-- discord -->
  <symbol id="discord" viewBox="0 0 31 27">
    <path
      d="M25.3633 3.42456C28.457 8.01831 30.0039 13.1746 29.4414 19.1277C29.4414 19.1277 29.4414 19.1746 29.3945 19.1746C27.332 20.7214 24.9883 21.8933 22.5039 22.6433C22.457 22.6433 22.4102 22.6433 22.4102 22.6433C21.8945 21.8933 21.4258 21.1433 21.0039 20.3464V20.2996C21.0039 20.2527 21.0039 20.2527 21.0508 20.2058C21.8008 19.9246 22.5039 19.5964 23.207 19.1746C23.2539 19.1746 23.2539 19.1746 23.2539 19.1277C23.2539 19.0808 23.2539 19.0808 23.207 19.0339C23.0664 18.9402 22.9258 18.8464 22.7852 18.7058H22.7383H22.6914C18.2383 20.7683 13.3633 20.7683 8.86328 18.7058C8.81641 18.7058 8.81641 18.7058 8.81641 18.7058C8.76953 18.7058 8.76953 18.7058 8.76953 18.7058C8.62891 18.8464 8.48828 18.9402 8.34766 19.0339C8.30078 19.0808 8.30078 19.0808 8.30078 19.1277C8.30078 19.1746 8.30078 19.1746 8.34766 19.1746C9.00391 19.5964 9.75391 19.9246 10.5039 20.2058C10.5039 20.2527 10.5508 20.2527 10.5508 20.2996V20.3464C10.1289 21.1433 9.66016 21.8933 9.14453 22.6433C9.09766 22.6433 9.09766 22.6433 9.05078 22.6433C6.51953 21.8933 4.17578 20.7214 2.16016 19.1746C2.11328 19.1746 2.11328 19.1277 2.11328 19.1277C1.64453 13.9714 2.62891 8.76831 6.19141 3.42456C6.19141 3.42456 6.19141 3.42456 6.23828 3.42456C7.97266 2.62769 9.89453 2.01831 11.8164 1.69019C11.8164 1.69019 11.8164 1.69019 11.8633 1.69019H11.9102C12.1914 2.15894 12.4258 2.67456 12.6133 3.14331C13.6445 3.00269 14.6758 2.90894 15.7539 2.90894C16.832 2.90894 17.9102 3.00269 18.9414 3.14331C19.1289 2.67456 19.3633 2.15894 19.6445 1.69019L19.6914 1.64331C19.6914 1.64331 19.6914 1.69019 19.7383 1.69019C21.6602 2.01831 23.582 2.62769 25.3164 3.42456C25.3633 3.42456 25.3633 3.42456 25.3633 3.42456ZM11.207 15.9871C12.5664 15.9871 13.6914 14.7214 13.6914 13.2214C13.6914 11.6746 12.6133 10.4558 11.207 10.4558C9.84766 10.4558 8.72266 11.6746 8.72266 13.2214C8.72266 14.7214 9.84766 15.9871 11.207 15.9871ZM20.3477 15.9871C21.7539 15.9871 22.832 14.7214 22.832 13.2214C22.8789 11.6746 21.7539 10.4558 20.3477 10.4558C18.9883 10.4558 17.9102 11.6746 17.9102 13.2214C17.9102 14.7214 18.9883 15.9871 20.3477 15.9871Z" />
  </symbol>

  <!-- instagram -->
  <symbol id="instagram" viewBox="0 0 22 27">
    <path
      d="M11.3008 6.75269C14.2539 6.75269 16.6914 9.19019 16.6914 12.1433C16.6914 15.1433 14.2539 17.5339
      11.3008 17.5339C8.30078 17.5339 5.91016 15.1433 5.91016 12.1433C5.91016 9.19019 8.30078 6.75269
      11.3008 6.75269ZM11.3008 15.6589C13.2227 15.6589 14.7695 14.1121 14.7695 12.1433C14.7695 10.2214
      13.2227 8.67456 11.3008 8.67456C9.33203 8.67456 7.78516 10.2214 7.78516 12.1433C7.78516 14.1121
      9.37891 15.6589 11.3008 15.6589ZM18.1445 6.56519C18.1445 7.26831 17.582 7.83081 16.8789
      7.83081C16.1758 7.83081 15.6133 7.26831 15.6133 6.56519C15.6133 5.86206 16.1758 5.29956 16.8789
      5.29956C17.582 5.29956 18.1445 5.86206 18.1445 6.56519ZM21.707 7.83081C21.8008 9.56519 21.8008
      14.7683 21.707 16.5027C21.6133 18.1902 21.2383 19.6433 20.0195 20.9089C18.8008 22.1277 17.3008
      22.5027 15.6133 22.5964C13.8789 22.6902 8.67578 22.6902 6.94141 22.5964C5.25391 22.5027 3.80078
      22.1277 2.53516 20.9089C1.31641 19.6433 0.941406 18.1902 0.847656 16.5027C0.753906 14.7683
      0.753906 9.56519 0.847656 7.83081C0.941406 6.14331 1.31641 4.64331 2.53516 3.42456C3.80078 2.20581
      5.25391 1.83081 6.94141 1.73706C8.67578 1.64331 13.8789 1.64331 15.6133 1.73706C17.3008 1.83081
      18.8008 2.20581 20.0195 3.42456C21.2383 4.64331 21.6133 6.14331 21.707 7.83081ZM19.457
      18.3308C20.0195 16.9714 19.8789 13.6902 19.8789 12.1433C19.8789 10.6433 20.0195 7.36206 19.457
      5.95581C19.082 5.06519 18.3789 4.31519 17.4883 3.98706C16.082 3.42456 12.8008 3.56519 11.3008
      3.56519C9.75391 3.56519 6.47266 3.42456 5.11328 3.98706C4.17578 4.36206 3.47266 5.06519 3.09766
      5.95581C2.53516 7.36206 2.67578 10.6433 2.67578 12.1433C2.67578 13.6902 2.53516 16.9714 3.09766
      18.3308C3.47266 19.2683 4.17578 19.9714 5.11328 20.3464C6.47266 20.9089 9.75391 20.7683 11.3008
      20.7683C12.8008 20.7683 16.082 20.9089 17.4883 20.3464C18.3789 19.9714 19.1289 19.2683 19.457
      18.3308Z" />
  </symbol>

  <!-- twitter -->
  <symbol id="twitter" viewBox="0 0 25 27">
    <path
      d="M22.3164 7.26831C22.3164 7.50269 22.3164 7.69019 22.3164 7.92456C22.3164 14.4402 17.3945 21.8933 8.34766 21.8933C5.53516 21.8933 2.95703 21.0964 0.800781 19.6902C1.17578 19.7371 1.55078 19.7839 1.97266 19.7839C4.26953 19.7839 6.37891 18.9871 8.06641 17.6746C5.91016 17.6277 4.08203 16.2214 3.47266 14.2527C3.80078 14.2996 4.08203 14.3464 4.41016 14.3464C4.83203 14.3464 5.30078 14.2527 5.67578 14.1589C3.42578 13.6902 1.73828 11.7214 1.73828 9.33081V9.28394C2.39453 9.65894 3.19141 9.84644 3.98828 9.89331C2.62891 9.00269 1.78516 7.50269 1.78516 5.81519C1.78516 4.87769 2.01953 4.03394 2.44141 3.33081C4.87891 6.28394 8.53516 8.25269 12.6133 8.48706C12.5195 8.11206 12.4727 7.73706 12.4727 7.36206C12.4727 4.64331 14.6758 2.44019 17.3945 2.44019C18.8008 2.44019 20.0664 3.00269 21.0039 3.98706C22.082 3.75269 23.1602 3.33081 24.0977 2.76831C23.7227 3.94019 22.9727 4.87769 21.9414 5.48706C22.9258 5.39331 23.9102 5.11206 24.7539 4.73706C24.0977 5.72144 23.2539 6.56519 22.3164 7.26831Z" />
  </symbol>

  <!-- telegram -->
  <symbol id="telegram" viewBox="0 0 16 13">
    <path
      d="M14.9375 1.72375L12.8438 11.6925C12.6875 12.38 12.25 12.5675 11.6562 12.2238L8.4375 9.84875L6.90625 11.3488C6.71875 11.5363 6.59375 11.6613 6.25 11.6613L6.46875 8.38L12.4375 3.005C12.7188 2.78625 12.375 2.63 12.0312 2.88L4.65625 7.505L1.5 6.53625C0.8125 6.3175 0.78125 5.84875 1.625 5.505L14.0625 0.723755C14.625 0.505005 15.125 0.848755 14.9375 1.72375Z" />
  </symbol>

  <!-- facebook -->
  <symbol id="facebook" viewBox="0 0 10 17">
    <path
      d="M8.71875 9.63H6.375V16.63H3.25V9.63H0.6875V6.755H3.25V4.53625C3.25 2.03625 4.75 0.630005 7.03125 0.630005C8.125 0.630005 9.28125 0.848755 9.28125 0.848755V3.3175H8C6.75 3.3175 6.375 4.0675 6.375 4.88V6.755H9.15625L8.71875 9.63Z" />
  </symbol>

  <!-- wallet -->
  <symbol id="wallet" viewBox="0 0 25 27">
    <path
      d="M22.4102 6.14331C23.7227 6.14331 24.8008 7.17456 24.8008 8.39331V20.3933C24.8008 21.6589 23.7227 22.6433 22.4102 22.6433H3.80078C2.11328 22.6433 0.800781 21.3308 0.800781 19.6433V4.64331C0.800781 3.00269 2.11328 1.64331 3.80078 1.64331H21.0508C22.2695 1.64331 23.3008 2.67456 23.3008 3.89331C23.3008 4.31519 22.9258 4.64331 22.5508 4.64331H4.55078C4.12891 4.64331 3.80078 5.01831 3.80078 5.39331C3.80078 5.81519 4.12891 6.14331 4.55078 6.14331H22.4102ZM20.3008 15.8933C21.0977 15.8933 21.8008 15.2371 21.8008 14.3933C21.8008 13.5964 21.0977 12.8933 20.3008 12.8933C19.457 12.8933 18.8008 13.5964 18.8008 14.3933C18.8008 15.2371 19.457 15.8933 20.3008 15.8933Z" />
  </symbol>

  <!-- tickDown -->
  <symbol id="tickDown" viewBox="0 0 18 15">
    <path
      d="M8.91117 14.3604L0.0723305 1.86035L1.31529 0.102539L8.91117 10.8447L16.507 0.102539L17.75 1.86035L8.91117 14.3604Z" />
  </symbol>

  <!-- tickUp -->
  <symbol id="tickUp" viewBox="0 0 14 8">
    <path
      d="M7 0.720703L13.25 6.9707L12.3711 7.84961L7 2.47852L1.62891 7.84961L0.75 6.9707L7 0.720703Z" />
  </symbol>

  <!-- tickSlider  -->
  <symbol id="tickSlider" viewBox="0 0 8 14">
    <path
      d="M7.65967 7.21313L1.97607 12.926C1.68311 13.1897 1.24365 13.1897 0.97998 12.926L0.306152 12.2522C0.0424805 11.9885 0.0424805 11.5491 0.306152 11.2561L4.81787 6.71509L0.306152 2.20337C0.0424805 1.9104 0.0424805 1.47095 0.306152 1.20728L0.97998 0.533447C1.24365 0.269775 1.68311 0.269775 1.97607 0.533447L7.65967 6.24634C7.92334 6.51001 7.92334 6.94946 7.65967 7.21313Z" />
  </symbol>

  <!-- nfthub -->
  <symbol id="nfthub" viewBox="0 0 143 26">
    <path
      d="M0.905281 25.1433V2.10331H5.80128L19.2733 18.1673V2.10331H23.9453V25.1433H19.0493L5.51328 9.01531V25.1433H0.905281ZM27.5943 25.1433V2.10331H48.8423V6.74331H32.2663V11.2873H45.6103V15.9593H32.2663V25.1433H27.5943ZM59.0318 25.1433V6.74331H49.8158V2.10331H72.8558V6.74331H63.6718V25.1433H59.0318ZM75.281 25.1433V2.10331H79.889V11.2873H94.193V2.10331H98.801V25.1433H94.193V15.9593H79.889V25.1433H75.281ZM106.884 25.1433C106.073 25.1433 105.316 24.9406 104.612 24.5353C103.929 24.1086 103.385 23.554 102.98 22.8713C102.574 22.1886 102.372 21.442 102.372 20.6313V6.58331H106.916V20.4073C106.916 20.45 106.937 20.4926 106.98 20.5353C107.022 20.578 107.065 20.5993 107.108 20.5993H116.452C116.494 20.5993 116.537 20.578 116.58 20.5353C116.622 20.4926 116.644 20.45 116.644 20.4073V6.58331H121.188V20.6313C121.188 21.442 120.985 22.1886 120.58 22.8713C120.174 23.554 119.63 24.1086 118.948 24.5353C118.265 24.9406 117.508 25.1433 116.676 25.1433H106.884ZM123.873 25.1433V0.503309H128.417V6.58331H138.177C139.009 6.58331 139.766 6.79664 140.449 7.22331C141.131 7.62864 141.675 8.17264 142.081 8.85531C142.486 9.53798 142.689 10.2846 142.689 11.0953V20.6313C142.689 21.442 142.486 22.1886 142.081 22.8713C141.675 23.554 141.131 24.1086 140.449 24.5353C139.766 24.9406 139.009 25.1433 138.177 25.1433H123.873ZM128.609 20.5993H137.953C138.017 20.5993 138.059 20.578 138.081 20.5353C138.123 20.4926 138.145 20.45 138.145 20.4073V11.3193C138.145 11.2766 138.123 11.234 138.081 11.1913C138.059 11.1486 138.017 11.1273 137.953 11.1273H128.609C128.566 11.1273 128.523 11.1486 128.481 11.1913C128.438 11.234 128.417 11.2766 128.417 11.3193V20.4073C128.417 20.45 128.438 20.4926 128.481 20.5353C128.523 20.578 128.566 20.5993 128.609 20.5993Z" />
  </symbol>

  <!-- arrowDiagonal -->
  <symbol id="arrowDiagonal" viewBox="0 0 16 16">
    <path d="M3.75 0.5V2H13.1953L0.75 14.4453L1.80469 15.5L14.25 3.05469V12.5H15.75V0.5H3.75Z" />
  </symbol>

  <!-- sun -->
  <symbol id="sun" viewBox="0 0 17 16">
    <path
      d="M8.4999 5.35002C10.0437 5.35002 11.3499 6.65627 11.3499 8.20002C11.3499 9.77346 10.0437 11.05 8.4999 11.05C6.92646 11.05 5.6499 9.77346 5.6499 8.20002C5.6499 6.65627 6.92646 5.35002 8.4999 5.35002ZM15.803 7.75471C16.189 7.93284 16.189 8.4969 15.803 8.67502L12.9827 10.0703L13.9921 13.0688C14.1108 13.4547 13.7249 13.8406 13.339 13.7219L10.3405 12.7125L8.94521 15.5328C8.76709 15.9188 8.20303 15.9188 8.0249 15.5328L6.62959 12.7125L3.63115 13.7219C3.24521 13.8406 2.85928 13.4547 2.97803 13.0688L3.9874 10.0703L1.16709 8.67502C0.781152 8.4969 0.781152 7.93284 1.16709 7.75471L3.9874 6.3594L2.97803 3.36096C2.85928 2.97502 3.24521 2.58909 3.63115 2.70784L6.62959 3.71721L8.0249 0.8969C8.20303 0.510962 8.76709 0.510962 8.94521 0.8969L10.3405 3.71721L13.339 2.70784C13.7249 2.58909 14.1108 2.97502 13.9921 3.36096L12.9827 6.3594L15.803 7.75471ZM11.1718 10.9016C12.6562 9.41721 12.6562 7.01252 11.1718 5.52815C9.6874 4.04377 7.28271 4.04377 5.79834 5.52815C4.31396 7.01252 4.31396 9.41721 5.79834 10.9016C7.28271 12.386 9.6874 12.386 11.1718 10.9016Z" />
  </symbol>

  <!-- moon -->
  <symbol id="moon" viewBox="0 0 24 24">
    <path
      d="M12 22C17.5228 22 22 17.5228 22 12C22 11.5373 21.3065 11.4608 21.0672 11.8568C19.9289 13.7406 17.8615 15 15.5 15C11.9101 15 9 12.0899 9 8.5C9 6.13845 10.2594 4.07105 12.1432 2.93276C12.5392 2.69347 12.4627 2 12 2C6.47715 2 2 6.47715 2 12C2 17.5228 6.47715 22 12 22Z" />
  </symbol>

  <!-- openMobileMenu -->
  <symbol id="openMobileMenu" viewBox="0 0 30 30">
    <g>
      <path
        d="M10.2 14.1H3.9C2.83333 14.1 1.91667 13.7167 1.15 12.95C0.383333 12.1833 0 11.2667 0 10.2V3.9C0 2.83333 0.383333 1.91667 1.15 1.15C1.91667 0.383333 2.83333 0 3.9 0H10.2C11.2667 0 12.1833 0.383333 12.95 1.15C13.7167 1.91667 14.1 2.83333 14.1 3.9V10.2C14.1 11.2667 13.7167 12.1833 12.95 12.95C12.1833 13.7167 11.2667 14.1 10.2 14.1ZM3.9 1.9C3.3 1.9 2.81667 2.08333 2.45 2.45C2.08333 2.81667 1.9 3.3 1.9 3.9V10.2C1.9 10.7333 2.08333 11.2 2.45 11.6C2.81667 12 3.3 12.2 3.9 12.2H10.2C10.7333 12.2 11.2 12 11.6 11.6C12 11.2 12.2 10.7333 12.2 10.2V3.9C12.2 3.3 12 2.81667 11.6 2.45C11.2 2.08333 10.7333 1.9 10.2 1.9H3.9ZM26.1 14.1H19.8C18.7333 14.1 17.8167 13.7167 17.05 12.95C16.2833 12.1833 15.9 11.2667 15.9 10.2V3.9C15.9 2.83333 16.2833 1.91667 17.05 1.15C17.8167 0.383333 18.7333 0 19.8 0H26.1C27.1667 0 28.0833 0.383333 28.85 1.15C29.6167 1.91667 30 2.83333 30 3.9V10.2C30 11.2667 29.6167 12.1833 28.85 12.95C28.0833 13.7167 27.1667 14.1 26.1 14.1ZM19.8 1.9C19.2667 1.9 18.8 2.08333 18.4 2.45C18 2.81667 17.8 3.3 17.8 3.9V10.2C17.8 10.7333 18 11.2 18.4 11.6C18.8 12 19.2667 12.2 19.8 12.2H26.1C26.7 12.2 27.1833 12 27.55 11.6C27.9167 11.2 28.1 10.7333 28.1 10.2V3.9C28.1 3.3 27.9167 2.81667 27.55 2.45C27.1833 2.08333 26.7 1.9 26.1 1.9H19.8ZM23 30C21.7333 30 20.55 29.6833 19.45 29.05C18.35 28.4167 17.4833 27.5667 16.85 26.5C16.2167 25.4333 15.9 24.2667 15.9 23C15.9 21.7333 16.2167 20.55 16.85 19.45C17.4833 18.35 18.35 17.4833 19.45 16.85C20.55 16.2167 21.7333 15.9 23 15.9C24.2667 15.9 25.4333 16.2167 26.5 16.85C27.5667 17.4833 28.4167 18.35 29.05 19.45C29.6833 20.55 30 21.7333 30 23C30 24.2667 29.6833 25.4333 29.05 26.5C28.4167 27.5667 27.5667 28.4167 26.5 29.05C25.4333 29.6833 24.2667 30 23 30ZM23 17.8C21.5333 17.8 20.3 18.3 19.3 19.3C18.3 20.3 17.8 21.5167 17.8 22.95C17.8 24.3833 18.3 25.6 19.3 26.6C20.3 27.6 21.5167 28.1 22.95 28.1C24.3833 28.1 25.6 27.6 26.6 26.6C27.6 25.6 28.1 24.3833 28.1 22.95C28.1 21.5167 27.6 20.3 26.6 19.3C25.6 18.3 24.4 17.8 23 17.8ZM10.2 30H3.9C2.83333 30 1.91667 29.6167 1.15 28.85C0.383333 28.0833 0 27.1667 0 26.1V19.8C0 18.7333 0.383333 17.8167 1.15 17.05C1.91667 16.2833 2.83333 15.9 3.9 15.9H10.2C11.2667 15.9 12.1833 16.2833 12.95 17.05C13.7167 17.8167 14.1 18.7333 14.1 19.8V26.1C14.1 27.1667 13.7167 28.0833 12.95 28.85C12.1833 29.6167 11.2667 30 10.2 30ZM3.9 17.8C3.3 17.8 2.81667 18 2.45 18.4C2.08333 18.8 1.9 19.2667 1.9 19.8V26.1C1.9 26.7 2.08333 27.1833 2.45 27.55C2.81667 27.9167 3.3 28.1 3.9 28.1H10.2C10.7333 28.1 11.2 27.9167 11.6 27.55C12 27.1833 12.2 26.7 12.2 26.1V19.8C12.2 19.2667 12 18.8 11.6 18.4C11.2 18 10.7333 17.8 10.2 17.8H3.9Z" />
    </g>
    <defs>
      <clipPath>
        <rect transform="matrix(1 0 0 -1 0 30)" />
      </clipPath>
    </defs>
  </symbol>
</svg>